<?xml version="1.0" encoding="UTF-8" standalone="no"?>
<!-- Created with Inkscape (http://www.inkscape.org/) -->

<svg
   version="1.1"
   id="svg275"
   xml:space="preserve"
   width="2625.9468"
   height="2235.4133"
   viewBox="0 0 2625.9468 2235.4133"
   sodipodi:docname="Logo_SSSO_Summer2021_OnDark.svg"
   inkscape:version="1.1 (c68e22c387, 2021-05-23)"
   xmlns:inkscape="http://www.inkscape.org/namespaces/inkscape"
   xmlns:sodipodi="http://sodipodi.sourceforge.net/DTD/sodipodi-0.dtd"
   xmlns="http://www.w3.org/2000/svg"
   xmlns:svg="http://www.w3.org/2000/svg"><defs
     id="defs279"><clipPath
       clipPathUnits="userSpaceOnUse"
       id="clipPath289"><path
         d="M 0,1676.556 H 1969.459 V 0 H 0 Z"
         id="path287" /></clipPath><clipPath
       clipPathUnits="userSpaceOnUse"
       id="clipPath305"><path
         d="M 0,1676.556 H 1969.459 V 0 H 0 Z"
         id="path303" /></clipPath><clipPath
       clipPathUnits="userSpaceOnUse"
       id="clipPath321"><path
         d="M 0,1676.556 H 1969.459 V 0 H 0 Z"
         id="path319" /></clipPath><clipPath
       clipPathUnits="userSpaceOnUse"
       id="clipPath337"><path
         d="M 0,1676.556 H 1969.459 V 0 H 0 Z"
         id="path335" /></clipPath></defs><sodipodi:namedview
     id="namedview277"
     pagecolor="#ffffff"
     bordercolor="#666666"
     borderopacity="1.0"
     inkscape:pageshadow="2"
     inkscape:pageopacity="0.0"
     inkscape:pagecheckerboard="0"
     showgrid="false"
     inkscape:snap-to-guides="false"
     inkscape:zoom="0.29857056"
     inkscape:cx="867.46665"
     inkscape:cy="1090.1946"
     inkscape:window-width="1920"
     inkscape:window-height="1057"
     inkscape:window-x="1912"
     inkscape:window-y="-8"
     inkscape:window-maximized="1"
     inkscape:current-layer="g281" /><g
     id="g281"
     inkscape:groupmode="layer"
     inkscape:label="Logo_SSSO_Spring2021_OnDark"
     transform="matrix(1.3333333,0,0,-1.3333333,0,2235.4133)"><g
       id="g283"><g
         id="g285"
         clip-path="url(#clipPath289)"><g
           id="g291"
           transform="translate(1398.9897,1599.6967)"><path
             d="m 0,0 c 364.854,-172.476 611.406,-653.419 529.591,-993.95 -82.922,-341.634 -494.211,-542.857 -890.022,-591.505 -395.811,-50.858 -775.037,51.964 -934.246,326.158 -158.103,273.086 -97.294,718.651 175.793,1009.428 C -846.902,39.802 -364.853,172.477 0,0"
             style="fill:#27e277;fill-opacity:1;fill-rule:nonzero;stroke:none"
             id="path293" /></g></g></g><text
       transform="matrix(1,0,0,-1,408.8882,1531.2266)"
       style="font-variant:normal;font-weight:bold;font-stretch:normal;font-size:125px;font-family:QTVagaRound;-inkscape-font-specification:QTVagaRound-Bold;writing-mode:lr-tb;fill:#ffffff;fill-opacity:1;fill-rule:nonzero;stroke:none"
       id="text297"><tspan
         x="0 134.25 269.75 368.25 521 655.25 808 951.5 1089.5"
         y="0"
         sodipodi:role="line"
         id="tspan295">SPINSHARE</tspan></text><g
       id="g299"><g
         id="g301"
         clip-path="url(#clipPath305)"><text
           transform="matrix(1,0,0,-1,0,927.3262)"
           style="font-variant:normal;font-weight:bold;font-stretch:normal;font-size:750px;font-family:QTVagaRound;-inkscape-font-specification:QTVagaRound-Bold;writing-mode:lr-tb;fill:#ffffff;fill-opacity:1;fill-rule:nonzero;stroke:none"
           id="text309"><tspan
             x="0 393 793.5 1129.5 1465.5"
             y="0"
             sodipodi:role="line"
             id="tspan307">SPEEN</tspan></text></g></g><text
       transform="matrix(1,0,0,-1,108.7427,377.3262)"
       style="font-variant:normal;font-weight:bold;font-stretch:normal;font-size:750px;font-family:QTVagaRound;-inkscape-font-specification:QTVagaRound-Bold;writing-mode:lr-tb;fill:#ffffff;fill-opacity:1;fill-rule:nonzero;stroke:none"
       id="text313"><tspan
         x="0 511.5 912 1248"
         y="0"
         sodipodi:role="line"
         id="tspan311">OPEN</tspan></text><g
       id="g315"><g
         id="g317"
         clip-path="url(#clipPath321)"><g
           id="g323"
           transform="translate(1672.0933,-2e-4)"><path
             d="m 0,0 h -1374.671 c -72.35,0 -131,58.65 -131,131 0,72.35 58.65,131 131,131 H 0 C 72.35,262 131,203.35 131,131 131,58.65 72.35,0 0,0"
             style="fill:#ffffff;fill-opacity:1;fill-rule:nonzero;stroke:none"
             id="path325" /></g></g></g><text
       transform="matrix(1,0,0,-1,397.9189,76.9492)"
       style="font-variant:normal;font-weight:bold;font-stretch:normal;font-size:165.823px;font-family:QTVagaRound;-inkscape-font-specification:QTVagaRound-Bold;word-spacing:0px;writing-mode:lr-tb;fill:#010010;fill-opacity:1;fill-rule:nonzero;stroke:none"
       id="text329"><tspan
         x="0 111.76456 225.18736 341.92661 406.26587 542.5722 676.88867 743.21777 854.98236 966.74695 1078.5115"
         sodipodi:role="line"
         id="tspan327"
         y="0"
         dx="0 -17.27 -17.950001 7.02 82.510002 28.780001"
         dy="0 0 0 0">SUMMER 2021</tspan></text><g
       id="g331"><g
         id="g333"
         clip-path="url(#clipPath337)"><g
           id="g339"
           transform="translate(143.7578,868.9998)"><path
             d="M 0,0 -63,-233 -31.5,-429.176 95,-543 l 306,8 99,172 v 204.418 L 410.176,0 245.604,58.326 Z"
             style="fill:#27e277;fill-opacity:1;fill-rule:nonzero;stroke:none"
             id="path341" /></g><g
           id="g343"
           transform="translate(399.3228,616.9998)"><path
             d="m 0,0 c 0,-21.299 -17.266,-38.564 -38.565,-38.564 -21.299,0 -38.565,17.265 -38.565,38.564 0,21.299 17.266,38.565 38.565,38.565 C -17.266,38.565 0,21.299 0,0"
             style="fill:#ffffff;fill-opacity:1;fill-rule:nonzero;stroke:none"
             id="path345" /></g><g
           id="g347"
           transform="translate(360.7578,526.5936)"><path
             d="m 0,0 c -49.93,0 -90.406,40.477 -90.406,90.406 0,49.931 40.476,90.406 90.406,90.406 49.93,0 90.406,-40.475 90.406,-90.406 C 90.406,40.477 49.93,0 0,0 m -142.651,233.058 c -9.415,-9.415 -17.963,-19.776 -25.406,-30.792 -7.512,-11.12 -13.963,-23.005 -19.175,-35.327 -5.307,-12.547 -9.383,-25.678 -12.114,-39.026 -1.225,-5.986 -6.493,-10.112 -12.375,-10.112 -0.84,0 -1.693,0.085 -2.548,0.26 -6.841,1.399 -11.252,8.081 -9.852,14.921 3.065,14.984 7.641,29.723 13.599,43.808 5.847,13.826 13.085,27.16 21.51,39.633 8.345,12.349 17.926,23.963 28.479,34.516 10.554,10.553 22.167,20.135 34.517,28.479 12.472,8.426 25.806,15.663 39.632,21.511 14.085,5.958 28.824,10.533 43.808,13.599 15.368,3.145 31.181,4.739 47.001,4.739 6.984,0 12.645,-5.661 12.645,-12.644 0,-6.983 -5.661,-12.644 -12.645,-12.644 -14.12,0 -28.228,-1.422 -41.932,-4.226 -13.347,-2.732 -26.478,-6.808 -39.026,-12.114 -12.322,-5.212 -24.208,-11.664 -35.326,-19.176 -11.017,-7.442 -21.377,-15.99 -30.792,-25.405 M 0,353.406 c -145.251,0 -263,-117.749 -263,-263 0,-145.251 117.749,-263 263,-263 145.251,0 263,117.749 263,263 0,145.251 -117.749,263 -263,263"
             style="fill:#ffffff;fill-opacity:1;fill-rule:nonzero;stroke:none"
             id="path349" /></g></g></g></g></svg>
