<?xml version="1.0" encoding="utf-8"?>
<!-- Generator: Adobe Illustrator 24.3.0, SVG Export Plug-In . SVG Version: 6.00 Build 0)  -->
<svg version="1.1" id="Ebene_1" xmlns="http://www.w3.org/2000/svg" xmlns:xlink="http://www.w3.org/1999/xlink" x="0px" y="0px"
	 viewBox="0 0 392 333.7" style="enable-background:new 0 0 392 333.7;" xml:space="preserve">
<style type="text/css">
	.st0{fill:#FF641F;}
	.st1{enable-background:new    ;}
	.st2{fill:#FFFFFF;}
	.st3{fill:#010010;}
</style>
<g id="Autumn">
	<g>
		<g>
			<path class="st0" d="M278.45,15.3c72.62,34.33,121.69,130.06,105.41,197.84c-16.5,68-98.37,108.05-177.15,117.73
				c-78.78,10.12-154.26-10.34-185.95-64.92C-10.71,211.59,1.4,122.91,55.75,65.03C109.89,7.38,205.83-19.03,278.45,15.3z"/>
		</g>
	</g>
	<g class="st1">
		<path class="st2" d="M94.37,23.5c0,0.76-0.12,1.5-0.35,2.23c-0.23,0.72-0.58,1.34-1.04,1.85c-0.55,0.6-1.26,1.04-2.13,1.34
			s-1.75,0.45-2.65,0.45c-0.8,0-1.56-0.07-2.29-0.21c-0.73-0.14-1.43-0.37-2.09-0.68c-0.43-0.21-0.77-0.49-1.02-0.83
			c-0.25-0.34-0.37-0.74-0.37-1.21c0-0.45,0.16-0.84,0.49-1.18c0.32-0.34,0.71-0.51,1.16-0.51c0.33,0,0.65,0.05,0.95,0.15l1.34,0.5
			c0.58,0.27,1.19,0.4,1.84,0.4c0.56,0,1.04-0.14,1.42-0.42c0.45-0.33,0.67-0.77,0.67-1.32c0-0.55-0.19-0.94-0.57-1.18
			c-0.38-0.24-0.82-0.44-1.32-0.61c-0.12-0.03-0.58-0.17-1.39-0.4c-1.51-0.45-2.57-0.93-3.18-1.44c-0.86-0.73-1.29-1.79-1.29-3.18
			c0-1.59,0.61-2.89,1.84-3.91c1.16-0.95,2.55-1.42,4.18-1.42c1.11,0,2.07,0.14,2.89,0.42c1.19,0.42,1.79,1.05,1.79,1.92
			c0,0.53-0.17,0.98-0.5,1.34c-0.33,0.37-0.75,0.55-1.24,0.55c-0.13,0-0.33-0.03-0.6-0.1l-0.7-0.25c-0.55-0.2-1.11-0.3-1.69-0.3
			c-0.5,0-0.94,0.11-1.32,0.34c-0.38,0.22-0.57,0.56-0.57,1.01c0,0.38,0.17,0.71,0.5,0.97c0.23,0.18,0.58,0.34,1.05,0.47l1,0.25
			c1.62,0.45,2.83,0.98,3.61,1.59C93.83,20.96,94.37,22.09,94.37,23.5z"/>
		<path class="st2" d="M121.44,17.78c0,0.76-0.1,1.48-0.3,2.14c-0.2,0.66-0.51,1.26-0.94,1.79c-0.5,0.6-1.1,1.04-1.82,1.32
			s-1.52,0.42-2.39,0.42h-2.88v3.58c0,0.6-0.17,1.1-0.5,1.52c-0.33,0.41-0.8,0.62-1.4,0.62c-0.58,0-1.05-0.2-1.39-0.61
			s-0.51-0.92-0.51-1.53V14.65c0-0.73,0.2-1.3,0.6-1.72c0.4-0.41,0.96-0.62,1.69-0.62h3.88c0.9,0,1.69,0.1,2.39,0.3
			c0.7,0.2,1.31,0.56,1.84,1.08c0.53,0.52,0.95,1.15,1.27,1.89C121.28,16.32,121.44,17.05,121.44,17.78z M117.56,17.98v-0.2
			c0-0.63-0.22-1.14-0.67-1.54c-0.45-0.4-1-0.6-1.66-0.6h-2.13v4.53h1.93c0.41,0,0.77-0.05,1.06-0.14s0.57-0.28,0.82-0.56
			C117.35,19.04,117.56,18.54,117.56,17.98z"/>
		<path class="st2" d="M139.53,27.04c0,0.6-0.17,1.1-0.51,1.52c-0.34,0.41-0.79,0.62-1.37,0.62c-0.61,0-1.08-0.2-1.42-0.61
			c-0.34-0.41-0.51-0.92-0.51-1.53V14.2c0-0.6,0.17-1.1,0.52-1.52c0.35-0.41,0.82-0.62,1.41-0.62c0.58,0,1.03,0.2,1.37,0.61
			s0.51,0.92,0.51,1.53V27.04z"/>
		<path class="st2" d="M169.51,26.99c0,0.33-0.04,0.63-0.11,0.88c-0.07,0.26-0.2,0.49-0.39,0.71c-0.35,0.4-0.78,0.6-1.3,0.6
			c-0.65,0-1.15-0.25-1.5-0.75l-7.53-9.55v8.16c0,0.6-0.17,1.1-0.51,1.52c-0.34,0.41-0.79,0.62-1.37,0.62
			c-0.61,0-1.08-0.2-1.42-0.61c-0.34-0.41-0.51-0.92-0.51-1.53V14.05c0-0.56,0.17-1.04,0.52-1.42c0.35-0.38,0.81-0.57,1.37-0.57
			c0.6,0,1.13,0.28,1.6,0.85l7.33,9.25V14.2c0-0.6,0.17-1.1,0.52-1.52c0.35-0.41,0.82-0.62,1.41-0.62c0.58,0,1.03,0.2,1.37,0.61
			s0.51,0.92,0.51,1.53V26.99z"/>
		<path class="st2" d="M196.28,23.5c0,0.76-0.12,1.5-0.35,2.23c-0.23,0.72-0.58,1.34-1.04,1.85c-0.55,0.6-1.26,1.04-2.13,1.34
			s-1.75,0.45-2.65,0.45c-0.8,0-1.56-0.07-2.29-0.21c-0.73-0.14-1.43-0.37-2.09-0.68c-0.43-0.21-0.77-0.49-1.02-0.83
			c-0.25-0.34-0.37-0.74-0.37-1.21c0-0.45,0.16-0.84,0.49-1.18c0.32-0.34,0.71-0.51,1.16-0.51c0.33,0,0.65,0.05,0.95,0.15l1.34,0.5
			c0.58,0.27,1.19,0.4,1.84,0.4c0.56,0,1.04-0.14,1.42-0.42c0.45-0.33,0.67-0.77,0.67-1.32c0-0.55-0.19-0.94-0.57-1.18
			c-0.38-0.24-0.82-0.44-1.32-0.61c-0.12-0.03-0.58-0.17-1.39-0.4c-1.51-0.45-2.57-0.93-3.18-1.44c-0.86-0.73-1.29-1.79-1.29-3.18
			c0-1.59,0.61-2.89,1.84-3.91c1.16-0.95,2.55-1.42,4.18-1.42c1.11,0,2.07,0.14,2.89,0.42c1.19,0.42,1.79,1.05,1.79,1.92
			c0,0.53-0.17,0.98-0.5,1.34c-0.33,0.37-0.75,0.55-1.24,0.55c-0.13,0-0.33-0.03-0.6-0.1l-0.7-0.25c-0.55-0.2-1.11-0.3-1.69-0.3
			c-0.5,0-0.94,0.11-1.32,0.34c-0.38,0.22-0.57,0.56-0.57,1.01c0,0.38,0.17,0.71,0.5,0.97c0.23,0.18,0.58,0.34,1.05,0.47l1,0.25
			c1.62,0.45,2.83,0.98,3.61,1.59C195.74,20.96,196.28,22.09,196.28,23.5z"/>
		<path class="st2" d="M225.79,27.04c0,0.6-0.17,1.1-0.52,1.52c-0.35,0.41-0.82,0.62-1.41,0.62c-0.58,0-1.03-0.2-1.37-0.61
			c-0.34-0.41-0.51-0.91-0.51-1.53v-4.91h-7.07v4.91c0,0.6-0.17,1.1-0.5,1.51s-0.8,0.62-1.4,0.62c-0.58,0-1.05-0.2-1.39-0.61
			c-0.34-0.41-0.51-0.92-0.51-1.53V14.2c0-0.6,0.17-1.1,0.5-1.52c0.33-0.41,0.8-0.62,1.4-0.62c0.62,0,1.09,0.2,1.42,0.6
			c0.33,0.4,0.49,0.91,0.49,1.54v4.53h7.07V14.2c0-0.6,0.17-1.1,0.51-1.52c0.34-0.41,0.79-0.62,1.37-0.62c0.61,0,1.08,0.2,1.42,0.61
			s0.51,0.92,0.51,1.53V27.04z"/>
		<path class="st2" d="M254.95,27.63c-0.05,0.5-0.28,0.88-0.68,1.14c-0.41,0.27-0.89,0.4-1.46,0.4c-0.38,0-0.71-0.16-1-0.47
			c-0.28-0.32-0.48-0.69-0.6-1.12l-0.5-1.84h-6.37l-0.4,1.44c-0.17,0.55-0.36,0.98-0.57,1.29c-0.32,0.46-0.69,0.7-1.12,0.7
			c-0.55,0-1.03-0.13-1.46-0.4c-0.42-0.26-0.67-0.65-0.73-1.14l-0.05-0.2c0-0.12,0.02-0.27,0.06-0.46c0.04-0.19,0.09-0.37,0.14-0.54
			l4.48-12.29c0.23-0.65,0.6-1.17,1.09-1.56c0.5-0.39,1.08-0.58,1.74-0.58c0.65,0,1.21,0.19,1.7,0.58c0.49,0.39,0.85,0.91,1.08,1.56
			l4.48,12.29c0.1,0.25,0.15,0.55,0.15,0.9V27.63z M249.57,22.33l-2.04-6.29l-1.99,6.29H249.57z"/>
		<path class="st2" d="M281.37,27.33c0,0.45-0.15,0.87-0.46,1.26c-0.31,0.39-0.67,0.58-1.09,0.58c-0.4,0-0.76-0.06-1.08-0.19
			c-0.33-0.12-0.59-0.34-0.81-0.66l-4.94-6.17v4.88c0,0.6-0.17,1.1-0.51,1.52c-0.34,0.41-0.79,0.62-1.37,0.62
			c-0.61,0-1.08-0.2-1.42-0.61c-0.34-0.41-0.51-0.92-0.51-1.53V14.65c0-1.53,0.78-2.29,2.34-2.29h3.83c0.8,0,1.53,0.1,2.21,0.3
			c0.68,0.2,1.3,0.53,1.87,1c1.16,0.95,1.74,2.17,1.74,3.68c0,0.73-0.1,1.38-0.3,1.95s-0.53,1.08-1,1.53
			c-0.35,0.33-0.75,0.6-1.22,0.8c-0.32,0.15-0.79,0.3-1.42,0.45l3.23,3.53c0.25,0.25,0.44,0.47,0.57,0.66
			c0.13,0.19,0.24,0.42,0.32,0.68V27.33z M277.44,17.63c0-0.56-0.22-1.04-0.65-1.42c-0.43-0.38-0.93-0.57-1.5-0.57h-2.3v3.88h2.35
			c0.6,0,1.1-0.17,1.5-0.51C277.24,18.67,277.44,18.21,277.44,17.63z"/>
	</g>
	<g class="st1">
		<path class="st2" d="M309.43,27.25c0,0.51-0.18,0.92-0.53,1.22c-0.36,0.3-0.81,0.46-1.36,0.46h-5.42c-0.75,0-1.32-0.2-1.73-0.61
			c-0.41-0.41-0.61-0.98-0.61-1.73V14.65c0-0.73,0.2-1.3,0.6-1.72c0.4-0.41,0.98-0.62,1.74-0.62h5.42c0.56,0,1.02,0.15,1.37,0.45
			c0.35,0.3,0.52,0.72,0.52,1.28c0,0.51-0.18,0.92-0.54,1.22s-0.81,0.46-1.36,0.46h-3.95v3.16h3.55c0.57,0,1.02,0.15,1.37,0.45
			c0.35,0.3,0.53,0.72,0.53,1.28c0,0.51-0.18,0.92-0.54,1.22s-0.81,0.46-1.36,0.46h-3.55v3.23h3.95c0.57,0,1.02,0.15,1.37,0.44
			S309.43,26.69,309.43,27.25z"/>
	</g>
	<g class="st1">
		<path class="st2" d="M77.92,116.58c0,4.58-0.7,9.03-2.09,13.36c-1.39,4.33-3.48,8.04-6.27,11.12c-3.28,3.58-7.54,6.27-12.76,8.06
			c-5.22,1.79-10.52,2.69-15.9,2.69c-4.78,0-9.36-0.42-13.73-1.27c-4.38-0.85-8.56-2.21-12.54-4.11c-2.59-1.29-4.63-2.96-6.12-5
			c-1.49-2.04-2.24-4.45-2.24-7.24c0-2.69,0.97-5.05,2.91-7.09c1.94-2.04,4.25-3.06,6.94-3.06c1.99,0,3.88,0.3,5.67,0.9l8.06,2.99
			c3.48,1.59,7.17,2.39,11.05,2.39c3.38,0,6.22-0.84,8.51-2.54c2.69-1.99,4.03-4.63,4.03-7.91s-1.15-5.65-3.43-7.09
			c-2.29-1.44-4.93-2.66-7.91-3.66c-0.7-0.2-3.48-0.99-8.36-2.39c-9.06-2.69-15.43-5.57-19.11-8.66
			c-5.18-4.38-7.76-10.75-7.76-19.11c0-9.55,3.68-17.37,11.05-23.44c6.96-5.67,15.32-8.51,25.08-8.51c6.67,0,12.44,0.85,17.32,2.54
			c7.17,2.49,10.75,6.32,10.75,11.49c0,3.19-1,5.87-2.99,8.06c-1.99,2.19-4.48,3.28-7.46,3.28c-0.8,0-1.99-0.2-3.58-0.6l-4.18-1.49
			c-3.28-1.19-6.67-1.79-10.15-1.79c-2.99,0-5.62,0.67-7.91,2.02c-2.29,1.34-3.43,3.36-3.43,6.05c0,2.29,0.99,4.23,2.99,5.82
			c1.39,1.1,3.48,2.04,6.27,2.84l5.97,1.49c9.75,2.69,16.97,5.87,21.65,9.55C74.69,101.36,77.92,108.13,77.92,116.58z"/>
		<path class="st2" d="M161.52,82.25c0,4.58-0.6,8.86-1.79,12.84c-1.19,3.98-3.07,7.56-5.65,10.75c-2.98,3.58-6.63,6.22-10.94,7.91
			c-4.31,1.69-9.1,2.54-14.36,2.54h-17.27v21.5c0,3.58-1,6.62-3.01,9.11c-2,2.49-4.81,3.73-8.41,3.73c-3.51,0-6.29-1.22-8.34-3.66
			c-2.05-2.44-3.08-5.5-3.08-9.18V63.44c0-4.38,1.19-7.81,3.58-10.3c2.39-2.49,5.77-3.73,10.15-3.73h23.29
			c5.37,0,10.15,0.6,14.33,1.79s7.86,3.36,11.05,6.49c3.18,3.13,5.72,6.92,7.61,11.34C160.57,73.47,161.52,77.87,161.52,82.25z
			 M138.23,83.44v-1.19c0-3.78-1.34-6.87-4.01-9.26s-5.99-3.58-9.95-3.58h-12.77v27.17h11.58c2.47,0,4.6-0.27,6.38-0.82
			c1.78-0.55,3.41-1.67,4.9-3.36C136.94,89.81,138.23,86.83,138.23,83.44z"/>
		<path class="st2" d="M226.31,139.05c0,3.06-1.07,5.51-3.21,7.34c-2.14,1.83-4.85,2.74-8.14,2.74h-32.54
			c-4.48,0-7.94-1.22-10.38-3.66c-2.44-2.44-3.66-5.9-3.66-10.38V63.44c0-4.38,1.19-7.81,3.58-10.3c2.39-2.49,5.87-3.73,10.45-3.73
			h32.54c3.38,0,6.12,0.89,8.21,2.67s3.13,4.35,3.13,7.71c0,3.06-1.08,5.51-3.22,7.34c-2.15,1.83-4.87,2.74-8.17,2.74h-23.69v18.96
			h21.29c3.4,0,6.15,0.89,8.25,2.67s3.15,4.35,3.15,7.71c0,3.06-1.08,5.51-3.23,7.33c-2.15,1.83-4.87,2.74-8.17,2.74h-21.29v19.41
			h23.69c3.4,0,6.15,0.89,8.25,2.67S226.31,135.69,226.31,139.05z"/>
		<path class="st2" d="M293.78,139.05c0,3.06-1.07,5.51-3.21,7.34c-2.14,1.83-4.85,2.74-8.14,2.74h-32.54
			c-4.48,0-7.94-1.22-10.38-3.66c-2.44-2.44-3.66-5.9-3.66-10.38V63.44c0-4.38,1.19-7.81,3.58-10.3c2.39-2.49,5.87-3.73,10.45-3.73
			h32.54c3.38,0,6.12,0.89,8.21,2.67s3.13,4.35,3.13,7.71c0,3.06-1.08,5.51-3.22,7.34c-2.15,1.83-4.87,2.74-8.17,2.74H258.7v18.96
			h21.29c3.4,0,6.15,0.89,8.25,2.67s3.15,4.35,3.15,7.71c0,3.06-1.08,5.51-3.23,7.33c-2.15,1.83-4.87,2.74-8.17,2.74H258.7v19.41
			h23.69c3.4,0,6.15,0.89,8.25,2.67S293.78,135.69,293.78,139.05z"/>
		<path class="st2" d="M391.11,137.48c0,1.99-0.23,3.76-0.67,5.3c-0.45,1.54-1.22,2.96-2.32,4.25c-2.09,2.39-4.69,3.58-7.78,3.58
			c-3.89,0-6.88-1.49-8.98-4.48l-45.19-57.32v48.96c0,3.58-1.01,6.62-3.04,9.11c-2.03,2.49-4.77,3.73-8.23,3.73
			c-3.66,0-6.5-1.22-8.53-3.66c-2.03-2.44-3.04-5.5-3.04-9.18V59.86c0-3.38,1.05-6.22,3.14-8.51c2.09-2.29,4.84-3.43,8.23-3.43
			c3.59,0,6.78,1.69,9.58,5.08l43.99,55.53V60.75c0-3.58,1.04-6.62,3.11-9.11c2.08-2.49,4.9-3.73,8.46-3.73
			c3.46,0,6.2,1.22,8.23,3.66c2.03,2.44,3.04,5.5,3.04,9.18V137.48z"/>
	</g>
	<g class="st1">
		<path class="st2" d="M124.94,208.14c0,8.16-1.25,15.58-3.73,22.24c-2.79,7.37-7.02,13.58-12.69,18.66
			c-4.38,4.08-9.36,7.14-14.93,9.18c-5.57,2.04-11.55,3.06-17.91,3.06c-6.77,0-13.24-1.27-19.41-3.81
			c-6.17-2.54-11.59-6.29-16.27-11.27c-4.68-4.97-8.11-10.7-10.3-17.17c-2.19-6.47-3.28-13.43-3.28-20.9
			c0-7.86,1.34-15.15,4.03-21.87s6.82-12.56,12.39-17.54c9.05-8.16,20-12.24,32.84-12.24c14.73,0,26.62,4.88,35.68,14.63
			C120.41,180.87,124.94,193.21,124.94,208.14z M100.46,208.14c0-8.7-1.94-15.85-5.82-21.45c-4.48-6.5-10.9-9.75-19.26-9.75
			c-3.09,0-6.17,0.7-9.26,2.1c-3.09,1.4-5.67,3.3-7.76,5.7c-2.59,2.9-4.48,6.4-5.67,10.5s-1.79,8.4-1.79,12.9
			c0,8.9,1.89,16.3,5.67,22.2c4.48,7,10.85,10.5,19.11,10.5c8.46,0,14.88-3.45,19.26-10.35
			C98.62,224.68,100.46,217.24,100.46,208.14z"/>
		<path class="st2" d="M206.75,191.72c0,4.58-0.6,8.86-1.79,12.84c-1.19,3.98-3.07,7.56-5.65,10.75c-2.98,3.58-6.63,6.22-10.94,7.91
			c-4.31,1.69-9.1,2.54-14.36,2.54h-17.27v21.5c0,3.58-1,6.62-3.01,9.11c-2,2.49-4.81,3.73-8.41,3.73c-3.51,0-6.29-1.22-8.34-3.66
			c-2.05-2.44-3.08-5.5-3.08-9.18v-74.34c0-4.38,1.19-7.81,3.58-10.3c2.39-2.49,5.77-3.73,10.15-3.73h23.29
			c5.37,0,10.15,0.6,14.33,1.79s7.86,3.36,11.05,6.49c3.18,3.13,5.72,6.92,7.61,11.34C205.8,182.94,206.75,187.34,206.75,191.72z
			 M183.46,192.91v-1.19c0-3.78-1.34-6.87-4.01-9.26s-5.99-3.58-9.95-3.58h-12.77v27.17h11.58c2.47,0,4.6-0.27,6.38-0.82
			c1.78-0.55,3.41-1.67,4.9-3.36C182.17,199.28,183.46,196.3,183.46,192.91z"/>
		<path class="st2" d="M271.53,248.52c0,3.06-1.07,5.51-3.21,7.34c-2.14,1.83-4.85,2.74-8.14,2.74h-32.54
			c-4.48,0-7.94-1.22-10.38-3.66c-2.44-2.44-3.66-5.9-3.66-10.38v-71.65c0-4.38,1.19-7.81,3.58-10.3c2.39-2.49,5.87-3.73,10.45-3.73
			h32.54c3.38,0,6.12,0.89,8.21,2.67s3.13,4.35,3.13,7.71c0,3.06-1.08,5.51-3.22,7.34c-2.15,1.83-4.87,2.74-8.17,2.74h-23.69v18.96
			h21.3c3.4,0,6.15,0.89,8.25,2.67c2.1,1.78,3.15,4.35,3.15,7.71c0,3.06-1.08,5.51-3.23,7.33c-2.15,1.83-4.87,2.74-8.17,2.74h-21.3
			v19.41h23.69c3.4,0,6.15,0.89,8.25,2.67C270.48,242.59,271.53,245.16,271.53,248.52z"/>
		<path class="st2" d="M368.86,246.95c0,1.99-0.23,3.76-0.67,5.3c-0.45,1.54-1.22,2.96-2.32,4.25c-2.09,2.39-4.69,3.58-7.78,3.58
			c-3.89,0-6.88-1.49-8.98-4.48l-45.19-57.32v48.96c0,3.58-1.01,6.62-3.04,9.11c-2.03,2.49-4.77,3.73-8.23,3.73
			c-3.66,0-6.5-1.22-8.53-3.66c-2.03-2.44-3.04-5.5-3.04-9.18v-77.92c0-3.38,1.05-6.22,3.14-8.51c2.09-2.29,4.84-3.43,8.23-3.43
			c3.59,0,6.78,1.69,9.58,5.08l43.99,55.53v-47.77c0-3.58,1.04-6.62,3.11-9.11c2.08-2.49,4.9-3.73,8.46-3.73
			c3.46,0,6.2,1.22,8.23,3.66c2.03,2.44,3.04,5.5,3.04,9.18V246.95z"/>
	</g>
	<g>
		<g>
			<path class="st2" d="M332.81,333.7H59.2c-14.4,0-26.07-11.67-26.07-26.07l0,0c0-14.4,11.67-26.07,26.07-26.07h273.61
				c14.4,0,26.07,11.67,26.07,26.07l0,0C358.89,322.03,347.21,333.7,332.81,333.7z"/>
		</g>
		<g class="st1">
			<path class="st3" d="M88.84,316.67c-0.07,0.66-0.37,1.17-0.91,1.52c-0.54,0.35-1.18,0.53-1.93,0.53c-0.51,0-0.95-0.21-1.32-0.63
				c-0.37-0.42-0.64-0.91-0.79-1.49l-0.66-2.44h-8.45l-0.53,1.91c-0.22,0.73-0.47,1.3-0.76,1.72c-0.42,0.62-0.91,0.92-1.49,0.92
				c-0.73,0-1.37-0.18-1.93-0.53s-0.89-0.86-0.97-1.52l-0.07-0.26c0-0.15,0.03-0.36,0.08-0.61c0.05-0.25,0.12-0.49,0.18-0.71
				l5.94-16.3c0.31-0.86,0.79-1.54,1.45-2.06c0.66-0.52,1.43-0.78,2.31-0.78c0.86,0,1.61,0.26,2.26,0.78
				c0.65,0.52,1.13,1.21,1.44,2.06l5.94,16.3c0.13,0.33,0.2,0.73,0.2,1.19V316.67z M81.71,309.64L79,301.29l-2.64,8.35H81.71z"/>
			<path class="st3" d="M113.73,308.75c0,1.41-0.1,2.54-0.3,3.4c-0.26,1.17-0.76,2.21-1.49,3.14c-0.9,1.14-2.05,2.05-3.45,2.71
				c-1.4,0.66-2.84,0.99-4.34,0.99c-2.64,0-4.87-0.83-6.7-2.47c-1.91-1.72-2.87-3.88-2.87-6.5v-11.16c0-0.79,0.22-1.45,0.66-1.98
				c0.44-0.53,1.06-0.79,1.86-0.79c0.82,0,1.45,0.25,1.88,0.76c0.43,0.51,0.65,1.18,0.65,2.01v10.43c0,0.68,0.08,1.3,0.25,1.86
				c0.17,0.56,0.45,1.08,0.84,1.57s0.91,0.86,1.53,1.12s1.27,0.4,1.93,0.4c1.52,0,2.71-0.57,3.56-1.72
				c0.37-0.53,0.62-1.09,0.74-1.68c0.12-0.59,0.18-1.29,0.18-2.08v-9.9c0-0.77,0.22-1.42,0.67-1.96c0.45-0.54,1.05-0.81,1.82-0.81
				c0.81,0,1.44,0.26,1.89,0.78c0.45,0.52,0.67,1.18,0.67,2V308.75z"/>
			<path class="st3" d="M135.28,298.63c0,0.68-0.24,1.22-0.71,1.62c-0.47,0.4-1.07,0.61-1.8,0.61h-2.9v15.01
				c0,0.79-0.22,1.47-0.66,2.02c-0.44,0.55-1.05,0.83-1.84,0.83c-0.81,0-1.44-0.27-1.89-0.81c-0.45-0.54-0.67-1.22-0.67-2.03v-15.01
				h-2.97c-0.75,0-1.35-0.19-1.82-0.57c-0.46-0.38-0.69-0.93-0.69-1.65c0-0.7,0.24-1.26,0.72-1.67s1.08-0.62,1.78-0.62h10.94
				c0.75,0,1.35,0.2,1.81,0.59C135.05,297.32,135.28,297.89,135.28,298.63z"/>
			<path class="st3" d="M159.93,308.75c0,1.41-0.1,2.54-0.3,3.4c-0.26,1.17-0.76,2.21-1.49,3.14c-0.9,1.14-2.05,2.05-3.45,2.71
				c-1.4,0.66-2.84,0.99-4.34,0.99c-2.64,0-4.87-0.83-6.7-2.47c-1.91-1.72-2.87-3.88-2.87-6.5v-11.16c0-0.79,0.22-1.45,0.66-1.98
				c0.44-0.53,1.06-0.79,1.86-0.79c0.82,0,1.45,0.25,1.88,0.76c0.43,0.51,0.65,1.18,0.65,2.01v10.43c0,0.68,0.08,1.3,0.25,1.86
				c0.17,0.56,0.45,1.08,0.84,1.57s0.91,0.86,1.53,1.12s1.27,0.4,1.93,0.4c1.52,0,2.71-0.57,3.56-1.72
				c0.37-0.53,0.62-1.09,0.74-1.68c0.12-0.59,0.18-1.29,0.18-2.08v-9.9c0-0.77,0.22-1.42,0.67-1.96c0.45-0.54,1.05-0.81,1.82-0.81
				c0.81,0,1.44,0.26,1.89,0.78c0.45,0.52,0.67,1.18,0.67,2V308.75z"/>
			<path class="st3" d="M192.15,316.14c0,0.73-0.18,1.34-0.53,1.83c-0.35,0.49-0.86,0.74-1.52,0.74c-0.53,0-0.99-0.07-1.39-0.2
				s-0.71-0.35-0.94-0.66c-0.23-0.31-0.4-0.64-0.5-0.99c-0.1-0.35-0.17-0.73-0.21-1.12l-1.72-10.36l-3.1,10.3
				c-0.33,1.1-0.63,1.81-0.89,2.14c-0.46,0.59-1.15,0.89-2.08,0.89c-0.79,0-1.4-0.2-1.83-0.59c-0.43-0.4-0.76-1.01-1.01-1.85
				l-3.5-10.89l-1.72,10.89c-0.29,1.63-1.25,2.44-2.9,2.44c-0.68,0-1.22-0.28-1.6-0.83c-0.39-0.55-0.58-1.18-0.58-1.88l0.07-0.53
				l2.71-16.57c0.09-0.48,0.2-0.88,0.33-1.17c0.13-0.3,0.35-0.59,0.66-0.88c0.66-0.53,1.41-0.79,2.24-0.79
				c0.79,0,1.49,0.18,2.08,0.53s1,0.88,1.22,1.58l3.7,11.35l3.43-10.89c0.24-0.75,0.65-1.36,1.22-1.85
				c0.57-0.48,1.24-0.73,2.01-0.73c0.81,0,1.56,0.24,2.23,0.71c0.67,0.47,1.07,1.09,1.21,1.86l2.9,16.77V316.14z"/>
			<path class="st3" d="M217.43,315.81c0,0.44-0.05,0.83-0.15,1.17s-0.27,0.65-0.51,0.94c-0.46,0.53-1.04,0.79-1.72,0.79
				c-0.86,0-1.52-0.33-1.98-0.99l-9.99-12.67v10.83c0,0.79-0.22,1.46-0.67,2.01s-1.05,0.83-1.82,0.83c-0.81,0-1.44-0.27-1.89-0.81
				s-0.67-1.22-0.67-2.03v-17.23c0-0.75,0.23-1.38,0.69-1.88s1.07-0.76,1.82-0.76c0.79,0,1.5,0.38,2.12,1.12l9.73,12.28v-10.56
				c0-0.79,0.23-1.46,0.69-2.01c0.46-0.55,1.08-0.83,1.87-0.83c0.76,0,1.37,0.27,1.82,0.81c0.45,0.54,0.67,1.22,0.67,2.03V315.81z"
				/>
			<path class="st3" d="M252.61,316.12c0,0.69-0.24,1.24-0.71,1.65c-0.47,0.41-1.05,0.61-1.73,0.61h-9.97
				c-0.55,0-0.99-0.04-1.3-0.13c-0.32-0.09-0.63-0.28-0.94-0.59c-0.4-0.39-0.59-0.83-0.59-1.31l0.07-0.26
				c0-0.42,0.14-0.83,0.43-1.25c0.13-0.2,0.43-0.52,0.89-0.98l5.02-5.76c1.06-1.24,1.73-2.06,2.01-2.48
				c0.81-1.17,1.22-2.13,1.22-2.88c0-0.62-0.2-1.16-0.59-1.62c-0.4-0.46-0.88-0.7-1.45-0.7c-0.66,0-1.2,0.2-1.62,0.59
				c-0.42,0.4-0.72,0.92-0.89,1.58c-0.29,1.21-0.6,1.99-0.94,2.33c-0.34,0.34-0.82,0.51-1.44,0.51c-0.71,0-1.27-0.24-1.68-0.73
				c-0.42-0.48-0.63-1.08-0.63-1.78c0-1.94,0.75-3.61,2.24-5.02s3.21-2.11,5.15-2.11c1.92,0,3.56,0.62,4.93,1.86
				s2.06,2.82,2.06,4.73c0,1.21-0.28,2.39-0.82,3.56c-0.44,0.95-1.11,1.98-2.01,3.1c-1.39,1.71-2.86,3.32-4.42,4.81h5.28
				c0.7,0,1.29,0.2,1.75,0.6S252.61,315.42,252.61,316.12z"/>
			<path class="st3" d="M275.38,307.36c0,2.97-0.63,5.53-1.88,7.69c-1.52,2.62-3.66,3.93-6.44,3.93c-0.97,0-1.91-0.24-2.82-0.73
				c-0.91-0.48-1.71-1.12-2.39-1.91c-0.99-1.1-1.69-2.41-2.1-3.93c-0.41-1.52-0.61-3.16-0.61-4.92c0-1.89,0.17-3.49,0.5-4.79
				c0.44-1.72,1.18-3.16,2.21-4.32c0.64-0.75,1.43-1.36,2.38-1.85c0.95-0.48,1.89-0.73,2.84-0.73c2.75,0,4.88,1.3,6.4,3.89
				C274.75,301.88,275.38,304.44,275.38,307.36z M270.23,307.36c0-1.39-0.2-2.7-0.59-3.93c-0.57-1.78-1.43-2.67-2.58-2.67
				c-1.1,0-1.88,0.88-2.34,2.64c-0.29,1.1-0.43,2.46-0.43,4.09c0,1.47,0.15,2.77,0.46,3.89c0.48,1.72,1.25,2.57,2.31,2.57
				c1.19,0,2.06-0.87,2.61-2.61C270.05,310.19,270.23,308.86,270.23,307.36z"/>
			<path class="st3" d="M296.44,316.12c0,0.69-0.24,1.24-0.71,1.65c-0.47,0.41-1.05,0.61-1.73,0.61h-9.97
				c-0.55,0-0.99-0.04-1.3-0.13c-0.32-0.09-0.63-0.28-0.94-0.59c-0.4-0.39-0.59-0.83-0.59-1.31l0.07-0.26
				c0-0.42,0.14-0.83,0.43-1.25c0.13-0.2,0.43-0.52,0.89-0.98l5.02-5.76c1.06-1.24,1.73-2.06,2.01-2.48
				c0.81-1.17,1.22-2.13,1.22-2.88c0-0.62-0.2-1.16-0.59-1.62c-0.4-0.46-0.88-0.7-1.45-0.7c-0.66,0-1.2,0.2-1.62,0.59
				c-0.42,0.4-0.72,0.92-0.89,1.58c-0.29,1.21-0.6,1.99-0.94,2.33c-0.34,0.34-0.82,0.51-1.44,0.51c-0.71,0-1.27-0.24-1.68-0.73
				c-0.42-0.48-0.63-1.08-0.63-1.78c0-1.94,0.75-3.61,2.24-5.02s3.21-2.11,5.15-2.11c1.92,0,3.56,0.62,4.93,1.86
				s2.06,2.82,2.06,4.73c0,1.21-0.28,2.39-0.82,3.56c-0.44,0.95-1.11,1.98-2.01,3.1c-1.39,1.71-2.86,3.32-4.42,4.81H294
				c0.7,0,1.29,0.2,1.75,0.6S296.44,315.42,296.44,316.12z"/>
		</g>
		<g class="st1">
			<path class="st3" d="M322.51,307.36c0,2.97-0.63,5.53-1.88,7.69c-1.52,2.62-3.66,3.93-6.44,3.93c-0.97,0-1.91-0.24-2.82-0.73
				c-0.91-0.48-1.71-1.12-2.39-1.91c-0.99-1.1-1.69-2.41-2.1-3.93c-0.41-1.52-0.61-3.16-0.61-4.92c0-1.89,0.17-3.49,0.5-4.79
				c0.44-1.72,1.18-3.16,2.21-4.32c0.64-0.75,1.43-1.36,2.38-1.85c0.95-0.48,1.89-0.73,2.84-0.73c2.75,0,4.88,1.3,6.4,3.89
				C321.87,301.88,322.51,304.44,322.51,307.36z M317.36,307.36c0-1.39-0.2-2.7-0.59-3.93c-0.57-1.78-1.43-2.67-2.58-2.67
				c-1.1,0-1.88,0.88-2.34,2.64c-0.29,1.1-0.43,2.46-0.43,4.09c0,1.47,0.15,2.77,0.46,3.89c0.48,1.72,1.25,2.57,2.31,2.57
				c1.19,0,2.06-0.87,2.61-2.61C317.17,310.19,317.36,308.86,317.36,307.36z"/>
		</g>
	</g>
	<g>
		<g>
			<polygon class="st0" points="28.61,160.74 16.07,207.11 22.34,246.16 47.52,268.81 108.43,267.22 128.13,232.99 128.13,192.3 
				110.26,160.74 77.5,149.13 			"/>
		</g>
	</g>
	<g id="DJRound_1_">
		<g>
			<g>
				<circle class="st2" cx="71.81" cy="210.89" r="7.68"/>
			</g>
		</g>
		<g>
			<path class="st2" d="M71.81,158.55c-28.91,0-52.35,23.44-52.35,52.35s23.44,52.35,52.35,52.35s52.35-23.44,52.35-52.35
				S100.72,158.55,71.81,158.55z M43.41,182.5c-1.87,1.87-3.58,3.94-5.06,6.13c-1.5,2.21-2.78,4.58-3.82,7.03
				c-1.06,2.5-1.87,5.11-2.41,7.77c-0.24,1.19-1.29,2.01-2.46,2.01c-0.17,0-0.34-0.02-0.51-0.05c-1.36-0.28-2.24-1.61-1.96-2.97
				c0.61-2.98,1.52-5.92,2.71-8.72c1.16-2.75,2.6-5.41,4.28-7.89c1.66-2.46,3.57-4.77,5.67-6.87c2.1-2.1,4.41-4.01,6.87-5.67
				c2.48-1.68,5.14-3.12,7.89-4.28c2.8-1.19,5.74-2.1,8.72-2.71c3.06-0.63,6.21-0.94,9.36-0.94c1.39,0,2.52,1.13,2.52,2.52
				s-1.13,2.52-2.52,2.52c-2.81,0-5.62,0.28-8.35,0.84c-2.66,0.54-5.27,1.35-7.77,2.41c-2.45,1.04-4.82,2.32-7.03,3.82
				C47.35,178.93,45.29,180.63,43.41,182.5z M71.81,228.89c-9.94,0-17.99-8.06-17.99-17.99s8.06-17.99,17.99-17.99
				s17.99,8.06,17.99,17.99S81.74,228.89,71.81,228.89z"/>
		</g>
	</g>
</g>
</svg>
