<?xml version="1.0" encoding="utf-8"?>
<!-- Generator: Adobe Illustrator 25.2.0, SVG Export Plug-In . SVG Version: 6.00 Build 0)  -->
<svg version="1.1" id="Ebene_1" xmlns="http://www.w3.org/2000/svg" xmlns:xlink="http://www.w3.org/1999/xlink" x="0px" y="0px"
	 viewBox="0 0 1969.5 1676.6" style="enable-background:new 0 0 1969.5 1676.6;" xml:space="preserve">
<style type="text/css">
	.st0{fill:#DB46A9;}
	.st1{fill:#FFFFFF;}
	.st2{fill:#010010;}
</style>
<g id="Spring">
	<g>
		<path class="st0" d="M1399,76.9c364.9,172.5,611.4,653.4,529.6,993.9c-82.9,341.6-494.2,542.9-890,591.5
			c-395.8,50.9-775-52-934.2-326.2C-53.8,1063.1,7,617.5,280.1,326.7C552.1,37.1,1034.1-95.6,1399,76.9z"/>
	</g>
	<g>
		<path class="st1" d="M474.1,118.1c0,3.8-0.6,7.6-1.8,11.2c-1.2,3.6-2.9,6.7-5.2,9.3c-2.8,3-6.3,5.2-10.7,6.8s-8.8,2.2-13.3,2.2
			c-4,0-7.8-0.4-11.5-1.1c-3.7-0.7-7.2-1.9-10.5-3.4c-2.2-1.1-3.9-2.5-5.1-4.2c-1.2-1.7-1.9-3.7-1.9-6.1c0-2.2,0.8-4.2,2.4-5.9
			c1.6-1.7,3.6-2.6,5.8-2.6c1.7,0,3.2,0.2,4.8,0.8l6.8,2.5c2.9,1.3,6,2,9.2,2c2.8,0,5.2-0.7,7.1-2.1c2.2-1.7,3.4-3.9,3.4-6.6
			s-1-4.7-2.9-5.9c-1.9-1.2-4.1-2.2-6.6-3.1c-0.6-0.2-2.9-0.8-7-2c-7.6-2.2-12.9-4.7-16-7.2c-4.3-3.7-6.5-9-6.5-16
			c0-8,3.1-14.5,9.2-19.6c5.8-4.7,12.8-7.1,21-7.1c5.6,0,10.4,0.7,14.5,2.1c6,2.1,9,5.3,9,9.6c0,2.7-0.8,4.9-2.5,6.8
			c-1.7,1.8-3.8,2.8-6.2,2.8c-0.7,0-1.7-0.2-3-0.5l-3.5-1.2c-2.8-1-5.6-1.5-8.5-1.5c-2.5,0-4.7,0.6-6.6,1.7
			c-1.9,1.1-2.9,2.8-2.9,5.1c0,1.9,0.8,3.5,2.5,4.9c1.2,0.9,2.9,1.7,5.2,2.4l5,1.2c8.2,2.2,14.2,4.9,18.1,8
			C471.4,105.3,474.1,111,474.1,118.1z"/>
		<path class="st1" d="M612.4,89.3c0,3.8-0.5,7.4-1.5,10.8c-1,3.3-2.6,6.3-4.7,9c-2.5,3-5.5,5.2-9.2,6.6c-3.6,1.4-7.6,2.1-12,2.1
			h-14.5v18c0,3-0.8,5.5-2.5,7.6s-4,3.1-7,3.1c-2.9,0-5.3-1-7-3.1s-2.6-4.6-2.6-7.7V73.6c0-3.7,1-6.5,3-8.6c2-2.1,4.8-3.1,8.5-3.1
			h19.5c4.5,0,8.5,0.5,12,1.5c3.5,1,6.6,2.8,9.2,5.4c2.7,2.6,4.8,5.8,6.4,9.5C611.6,82,612.4,85.7,612.4,89.3z M592.9,90.3v-1
			c0-3.2-1.1-5.8-3.4-7.8s-5-3-8.3-3h-10.7v22.8h9.7c2.1,0,3.9-0.2,5.3-0.7c1.5-0.5,2.9-1.4,4.1-2.8
			C591.8,95.7,592.9,93.2,592.9,90.3z"/>
		<path class="st1" d="M705.5,135.8c0,3-0.8,5.5-2.5,7.6s-4,3.1-6.9,3.1c-3.1,0-5.4-1-7.1-3.1s-2.5-4.6-2.5-7.7V71.3
			c0-3,0.9-5.5,2.6-7.6c1.7-2.1,4.1-3.1,7.1-3.1c2.9,0,5.2,1,6.9,3.1c1.7,2,2.5,4.6,2.5,7.7V135.8z"/>
		<path class="st1" d="M858.4,135.6c0,1.7-0.2,3.1-0.6,4.4c-0.4,1.3-1,2.5-1.9,3.6c-1.8,2-3.9,3-6.5,3c-3.3,0-5.8-1.2-7.5-3.8
			l-37.8-48v41c0,3-0.8,5.5-2.5,7.6s-4,3.1-6.9,3.1c-3.1,0-5.4-1-7.1-3.1s-2.5-4.6-2.5-7.7V70.6c0-2.8,0.9-5.2,2.6-7.1
			c1.8-1.9,4.1-2.9,6.9-2.9c3,0,5.7,1.4,8,4.2l36.8,46.5v-40c0-3,0.9-5.5,2.6-7.6c1.7-2.1,4.1-3.1,7.1-3.1c2.9,0,5.2,1,6.9,3.1
			c1.7,2,2.5,4.6,2.5,7.7V135.6z"/>
		<path class="st1" d="M995.1,118.1c0,3.8-0.6,7.6-1.8,11.2c-1.2,3.6-2.9,6.7-5.2,9.3c-2.8,3-6.3,5.2-10.7,6.8s-8.8,2.2-13.3,2.2
			c-4,0-7.8-0.4-11.5-1.1c-3.7-0.7-7.2-1.9-10.5-3.4c-2.2-1.1-3.9-2.5-5.1-4.2c-1.2-1.7-1.9-3.7-1.9-6.1c0-2.2,0.8-4.2,2.4-5.9
			c1.6-1.7,3.6-2.6,5.8-2.6c1.7,0,3.2,0.2,4.8,0.8l6.8,2.5c2.9,1.3,6,2,9.2,2c2.8,0,5.2-0.7,7.1-2.1c2.2-1.7,3.4-3.9,3.4-6.6
			s-1-4.7-2.9-5.9c-1.9-1.2-4.1-2.2-6.6-3.1c-0.6-0.2-2.9-0.8-7-2c-7.6-2.2-12.9-4.7-16-7.2c-4.3-3.7-6.5-9-6.5-16
			c0-8,3.1-14.5,9.2-19.6c5.8-4.7,12.8-7.1,21-7.1c5.6,0,10.4,0.7,14.5,2.1c6,2.1,9,5.3,9,9.6c0,2.7-0.8,4.9-2.5,6.8
			c-1.7,1.8-3.8,2.8-6.2,2.8c-0.7,0-1.7-0.2-3-0.5l-3.5-1.2c-2.8-1-5.6-1.5-8.5-1.5c-2.5,0-4.7,0.6-6.6,1.7
			c-1.9,1.1-2.9,2.8-2.9,5.1c0,1.9,0.8,3.5,2.5,4.9c1.2,0.9,2.9,1.7,5.2,2.4l5,1.2c8.2,2.2,14.2,4.9,18.1,8
			C992.4,105.3,995.1,111,995.1,118.1z"/>
		<path class="st1" d="M1145.6,135.8c0,3-0.9,5.5-2.6,7.6s-4.1,3.1-7.1,3.1c-2.9,0-5.2-1-6.9-3.1c-1.7-2-2.5-4.6-2.5-7.7v-24.7H1091
			v24.7c0,3-0.8,5.5-2.5,7.6c-1.7,2.1-4,3.1-7,3.1c-2.9,0-5.3-1-7-3.1s-2.6-4.6-2.6-7.7V71.3c0-3,0.8-5.5,2.5-7.6
			c1.7-2.1,4-3.1,7-3.1c3.1,0,5.5,1,7.1,3c1.6,2,2.5,4.6,2.5,7.7v22.8h35.5V71.3c0-3,0.8-5.5,2.5-7.6c1.7-2.1,4-3.1,6.9-3.1
			c3.1,0,5.4,1,7.1,3.1c1.7,2,2.5,4.6,2.5,7.7V135.8z"/>
		<path class="st1" d="M1294.4,138.8c-0.2,2.5-1.4,4.4-3.4,5.8c-2,1.3-4.5,2-7.3,2c-1.9,0-3.6-0.8-5-2.4c-1.4-1.6-2.4-3.5-3-5.6
			l-2.5-9.2h-32l-2,7.2c-0.8,2.8-1.8,4.9-2.9,6.5c-1.6,2.3-3.5,3.5-5.6,3.5c-2.8,0-5.2-0.7-7.3-2s-3.4-3.2-3.7-5.8l-0.2-1
			c0-0.6,0.1-1.4,0.3-2.3c0.2-1,0.4-1.9,0.7-2.7l22.5-61.8c1.2-3.2,3-5.9,5.5-7.8c2.5-2,5.4-2.9,8.8-2.9c3.2,0,6.1,1,8.6,2.9
			c2.5,2,4.3,4.6,5.4,7.8l22.5,61.8c0.5,1.2,0.8,2.8,0.8,4.5V138.8z M1267.4,112.2l-10.2-31.6l-10,31.6H1267.4z"/>
		<path class="st1" d="M1429.4,137.3c0,2.2-0.8,4.4-2.3,6.3s-3.4,2.9-5.5,2.9c-2,0-3.8-0.3-5.5-0.9c-1.6-0.6-3-1.7-4.1-3.3l-24.8-31
			v24.5c0,3-0.8,5.5-2.5,7.6s-4,3.1-6.9,3.1c-3.1,0-5.4-1-7.1-3.1s-2.5-4.6-2.5-7.7V73.6c0-7.7,3.9-11.5,11.8-11.5h19.2
			c4,0,7.7,0.5,11.1,1.5c3.4,1,6.5,2.7,9.4,5c5.8,4.8,8.8,10.9,8.8,18.5c0,3.7-0.5,6.9-1.5,9.8s-2.7,5.4-5,7.7c-1.8,1.7-3.8,3-6.1,4
			c-1.6,0.8-4,1.5-7.1,2.2l16.2,17.8c1.2,1.2,2.2,2.4,2.9,3.3c0.7,1,1.2,2.1,1.6,3.4V137.3z M1409.6,88.6c0-2.8-1.1-5.2-3.3-7.1
			c-2.2-1.9-4.7-2.9-7.5-2.9h-11.6v19.5h11.8c3,0,5.5-0.9,7.5-2.6C1408.6,93.8,1409.6,91.5,1409.6,88.6z"/>
		<path class="st1" d="M1554.6,136.9c0,2.6-0.9,4.6-2.7,6.1c-1.8,1.5-4.1,2.3-6.8,2.3h-27.2c-3.8,0-6.6-1-8.7-3.1
			c-2-2-3.1-4.9-3.1-8.7v-60c0-3.7,1-6.5,3-8.6c2-2.1,4.9-3.1,8.8-3.1h27.2c2.8,0,5.1,0.7,6.9,2.2c1.8,1.5,2.6,3.6,2.6,6.5
			c0,2.6-0.9,4.6-2.7,6.1c-1.8,1.5-4.1,2.3-6.8,2.3h-19.8v15.9h17.8c2.8,0,5.1,0.7,6.9,2.2s2.6,3.6,2.6,6.5c0,2.6-0.9,4.6-2.7,6.1
			s-4.1,2.3-6.8,2.3h-17.8v16.2h19.8c2.8,0,5.1,0.7,6.9,2.2S1554.6,134.1,1554.6,136.9z"/>
	</g>
	<g>
		<path class="st1" d="M391.5,585.7c0,23-3.5,45.4-10.5,67.1c-7,21.8-17.5,40.4-31.5,55.9c-16.5,18-37.9,31.5-64.1,40.5
			s-52.9,13.5-79.9,13.5c-24,0-47-2.1-69-6.4c-22-4.3-43-11.1-63-20.6c-13-6.5-23.2-14.9-30.8-25.1c-7.5-10.2-11.2-22.4-11.2-36.4
			c0-13.5,4.9-25.4,14.6-35.6c9.8-10.2,21.4-15.4,34.9-15.4c10,0,19.5,1.5,28.5,4.5l40.5,15c17.5,8,36,12,55.5,12
			c17,0,31.2-4.2,42.8-12.8c13.5-10,20.2-23.2,20.2-39.8s-5.8-28.4-17.2-35.6c-11.5-7.2-24.8-13.4-39.8-18.4c-3.5-1-17.5-5-42-12
			c-45.5-13.5-77.5-28-96-43.5c-26-22-39-54-39-96c0-48,18.5-87.2,55.5-117.8c35-28.5,77-42.8,126-42.8c33.5,0,62.5,4.3,87,12.8
			c36,12.5,54,31.8,54,57.8c0,16-5,29.5-15,40.5c-10,11-22.5,16.5-37.5,16.5c-4,0-10-1-18-3l-21-7.5c-16.5-6-33.5-9-51-9
			c-15,0-28.3,3.4-39.8,10.1c-11.5,6.8-17.2,16.9-17.2,30.4c0,11.5,5,21.3,15,29.2c7,5.5,17.5,10.3,31.5,14.2l30,7.5
			c49,13.5,85.2,29.5,108.8,48C375.2,509.2,391.5,543.2,391.5,585.7z"/>
		<path class="st1" d="M808.5,413.2c0,23-3,44.5-9,64.5c-6,20-15.4,38-28.4,54c-15,18-33.3,31.3-55,39.8
			c-21.7,8.5-45.7,12.8-72.2,12.8h-86.7v108c0,18-5,33.3-15.1,45.8s-24.2,18.8-42.3,18.8c-17.6,0-31.6-6.1-41.9-18.4
			s-15.5-27.6-15.5-46.1V318.7c0-22,6-39.2,18-51.8c12-12.5,29-18.8,51-18.8h117c27,0,51,3,72,9s39.5,16.9,55.5,32.6
			c16,15.8,28.7,34.8,38.2,57C803.7,369.1,808.5,391.2,808.5,413.2z M691.5,419.2v-6c0-19-6.7-34.5-20.1-46.5s-30.1-18-50-18h-64.1
			v136.5h58.2c12.4,0,23.1-1.4,32.1-4.1c9-2.7,17.2-8.4,24.6-16.9C685,451.2,691.5,436.2,691.5,419.2z"/>
		<path class="st1" d="M1131,698.6c0,15.4-5.4,27.7-16.1,36.9c-10.8,9.2-24.4,13.8-40.9,13.8H910.5c-22.5,0-39.9-6.1-52.1-18.4
			c-12.3-12.2-18.4-29.6-18.4-52.1v-360c0-22,6-39.2,18-51.8c12-12.5,29.5-18.8,52.5-18.8H1074c17,0,30.8,4.5,41.2,13.4
			s15.8,21.8,15.8,38.7c0,15.4-5.4,27.7-16.2,36.9c-10.8,9.2-24.5,13.8-41.1,13.8h-119v95.2h107c17.1,0,30.9,4.5,41.4,13.4
			s15.8,21.8,15.8,38.7c0,15.4-5.4,27.7-16.2,36.9s-24.5,13.8-41.1,13.8h-107v97.5h119c17.1,0,30.9,4.5,41.4,13.4
			S1131,681.7,1131,698.6z"/>
		<path class="st1" d="M1467,698.6c0,15.4-5.4,27.7-16.1,36.9c-10.8,9.2-24.4,13.8-40.9,13.8h-163.5c-22.5,0-39.9-6.1-52.1-18.4
			c-12.3-12.2-18.4-29.6-18.4-52.1v-360c0-22,6-39.2,18-51.8c12-12.5,29.5-18.8,52.5-18.8H1410c17,0,30.8,4.5,41.2,13.4
			s15.8,21.8,15.8,38.7c0,15.4-5.4,27.7-16.2,36.9c-10.8,9.2-24.5,13.8-41.1,13.8h-119v95.2h107c17.1,0,30.9,4.5,41.4,13.4
			s15.8,21.8,15.8,38.7c0,15.4-5.4,27.7-16.2,36.9s-24.5,13.8-41.1,13.8h-107v97.5h119c17.1,0,30.9,4.5,41.4,13.4
			S1467,681.7,1467,698.6z"/>
		<path class="st1" d="M1953,690.7c0,10-1.1,18.9-3.4,26.6c-2.2,7.8-6.1,14.9-11.6,21.4c-10.5,12-23.6,18-39.1,18
			c-19.5,0-34.6-7.5-45.1-22.5l-227-288v246c0,18-5.1,33.3-15.3,45.8s-24,18.8-41.3,18.8c-18.4,0-32.7-6.1-42.9-18.4
			s-15.3-27.6-15.3-46.1V300.7c0-17,5.3-31.2,15.8-42.8c10.5-11.5,24.3-17.2,41.3-17.2c18,0,34.1,8.5,48.1,25.5l221,279v-240
			c0-18,5.2-33.2,15.6-45.8c10.4-12.5,24.6-18.8,42.5-18.8c17.4,0,31.2,6.1,41.3,18.4c10.2,12.3,15.3,27.6,15.3,46.1V690.7z"/>
		<path class="st1" d="M627.7,1045.7c0,41-6.3,78.3-18.8,111.8c-14,37-35.2,68.2-63.8,93.8c-22,20.5-47,35.9-75,46.1
			c-28,10.2-58,15.4-90,15.4c-34,0-66.5-6.4-97.5-19.1c-31-12.8-58.3-31.6-81.8-56.6c-23.5-25-40.8-53.7-51.8-86.2
			c-11-32.5-16.5-67.5-16.5-105c0-39.5,6.8-76.1,20.2-109.9s34.2-63.1,62.2-88.1c45.5-41,100.5-61.5,165-61.5
			c74,0,133.7,24.5,179.2,73.5C605,908.7,627.7,970.7,627.7,1045.7z M504.7,1045.7c0-43.7-9.8-79.6-29.2-107.7
			c-22.5-32.6-54.8-49-96.8-49c-15.5,0-31,3.5-46.5,10.5c-15.5,7-28.5,16.6-39,28.6c-13,14.6-22.5,32.1-28.5,52.7s-9,42.2-9,64.8
			c0,44.7,9.5,81.9,28.5,111.5c22.5,35.2,54.5,52.7,96,52.7c42.5,0,74.7-17.3,96.8-52C495.5,1128.9,504.7,1091.4,504.7,1045.7z"/>
		<path class="st1" d="M1035.7,963.2c0,23-3,44.5-9,64.5c-6,20-15.4,38-28.4,54c-15,18-33.3,31.3-55,39.8
			c-21.7,8.5-45.7,12.8-72.2,12.8h-86.7v108c0,18-5,33.3-15.1,45.8s-24.2,18.8-42.3,18.8c-17.6,0-31.6-6.1-41.9-18.4
			s-15.5-27.6-15.5-46.1V868.7c0-22,6-39.2,18-51.8c12-12.5,29-18.8,51-18.8h117c27,0,51,3,72,9s39.5,16.9,55.5,32.6
			c16,15.8,28.7,34.8,38.2,57C1031,919.1,1035.7,941.2,1035.7,963.2z M918.7,969.2v-6c0-19-6.7-34.5-20.1-46.5s-30.1-18-50-18h-64.1
			v136.5h58.2c12.4,0,23.1-1.4,32.1-4.1c9-2.7,17.2-8.4,24.6-16.9C912.3,1001.2,918.7,986.2,918.7,969.2z"/>
		<path class="st1" d="M1358.2,1248.6c0,15.4-5.4,27.7-16.1,36.9c-10.8,9.2-24.4,13.8-40.9,13.8h-163.5c-22.5,0-39.9-6.1-52.1-18.4
			c-12.3-12.2-18.4-29.6-18.4-52.1v-360c0-22,6-39.2,18-51.8c12-12.5,29.5-18.8,52.5-18.8h163.5c17,0,30.8,4.5,41.2,13.4
			s15.8,21.8,15.8,38.7c0,15.4-5.4,27.7-16.2,36.9c-10.8,9.2-24.5,13.8-41.1,13.8h-119v95.2h107c17.1,0,30.9,4.5,41.4,13.4
			s15.8,21.8,15.8,38.7c0,15.4-5.4,27.7-16.2,36.9s-24.5,13.8-41.1,13.8h-107v97.5h119c17.1,0,30.9,4.5,41.4,13.4
			S1358.2,1231.7,1358.2,1248.6z"/>
		<path class="st1" d="M1844.2,1240.7c0,10-1.1,18.9-3.4,26.6c-2.2,7.8-6.1,14.9-11.6,21.4c-10.5,12-23.6,18-39.1,18
			c-19.5,0-34.6-7.5-45.1-22.5l-227-288v246c0,18-5.1,33.3-15.3,45.8s-24,18.8-41.3,18.8c-18.4,0-32.7-6.1-42.9-18.4
			s-15.3-27.6-15.3-46.1V850.7c0-17,5.3-31.2,15.8-42.8c10.5-11.5,24.3-17.2,41.3-17.2c18,0,34.1,8.5,48.1,25.5l221,279v-240
			c0-18,5.2-33.2,15.6-45.8c10.4-12.5,24.6-18.8,42.5-18.8c17.4,0,31.2,6.1,41.3,18.4c10.2,12.3,15.3,27.6,15.3,46.1V1240.7z"/>
	</g>
	<g>
		<g>
			<path class="st1" d="M1672.1,1676.6H297.4c-72.3,0-131-58.7-131-131v0c0-72.3,58.7-131,131-131h1374.7c72.3,0,131,58.7,131,131v0
				C1803.1,1617.9,1744.4,1676.6,1672.1,1676.6z"/>
		</g>
		<g>
			<path class="st2" d="M484.5,1563.5c0,5.1-0.8,10-2.3,14.8c-1.5,4.8-3.9,8.9-7,12.4c-3.6,4-8.4,7-14.2,9s-11.7,3-17.7,3
				c-5.3,0-10.4-0.5-15.3-1.4c-4.9-0.9-9.5-2.5-13.9-4.6c-2.9-1.4-5.1-3.3-6.8-5.6c-1.7-2.3-2.5-4.9-2.5-8c0-3,1.1-5.6,3.2-7.9
				c2.2-2.3,4.7-3.4,7.7-3.4c2.2,0,4.3,0.3,6.3,1l9,3.3c3.9,1.8,8,2.7,12.3,2.7c3.8,0,6.9-0.9,9.5-2.8c3-2.2,4.5-5.1,4.5-8.8
				c0-3.6-1.3-6.3-3.8-7.9c-2.5-1.6-5.5-3-8.8-4.1c-0.8-0.2-3.9-1.1-9.3-2.7c-10.1-3-17.1-6.2-21.2-9.6c-5.7-4.9-8.6-11.9-8.6-21.2
				c0-10.6,4.1-19.3,12.3-26c7.7-6.3,17-9.5,27.9-9.5c7.4,0,13.8,0.9,19.2,2.8c8,2.8,11.9,7,11.9,12.8c0,3.5-1.1,6.5-3.3,9
				c-2.2,2.4-5,3.6-8.3,3.6c-0.9,0-2.2-0.2-4-0.7l-4.6-1.7c-3.6-1.3-7.4-2-11.3-2c-3.3,0-6.2,0.7-8.8,2.2c-2.5,1.5-3.8,3.7-3.8,6.7
				c0,2.5,1.1,4.7,3.3,6.5c1.5,1.2,3.9,2.3,7,3.2l6.6,1.7c10.8,3,18.8,6.5,24,10.6C480.9,1546.5,484.5,1554.1,484.5,1563.5z"/>
			<path class="st2" d="M601.5,1525.3c0,5.1-0.7,9.8-2,14.3c-1.3,4.4-3.4,8.4-6.3,11.9c-3.3,4-7.4,6.9-12.2,8.8
				c-4.8,1.9-10.1,2.8-16,2.8H546v23.9c0,4-1.1,7.4-3.3,10.1s-5.3,4.1-9.3,4.1c-3.9,0-7-1.4-9.3-4.1c-2.3-2.7-3.4-6.1-3.4-10.2
				v-82.6c0-4.9,1.3-8.7,4-11.4c2.7-2.8,6.4-4.1,11.3-4.1h25.9c6,0,11.3,0.7,15.9,2c4.6,1.3,8.7,3.7,12.3,7.2
				c3.5,3.5,6.4,7.7,8.5,12.6C600.5,1515.6,601.5,1520.5,601.5,1525.3z M575.7,1526.6v-1.3c0-4.2-1.5-7.6-4.5-10.3s-6.7-4-11-4H546
				v30.2h12.9c2.7,0,5.1-0.3,7.1-0.9c2-0.6,3.8-1.9,5.4-3.7C574.2,1533.7,575.7,1530.4,575.7,1526.6z"/>
			<path class="st2" d="M714.6,1589c0,3-1,5.8-3.1,8.4c-2.1,2.6-4.5,3.9-7.2,3.9c-2.7,0-5.1-0.4-7.2-1.2c-2.2-0.8-4-2.3-5.4-4.4
				l-32.9-41.1v32.5c0,4-1.1,7.4-3.4,10.1c-2.3,2.8-5.3,4.1-9.1,4.1c-4.1,0-7.2-1.4-9.5-4.1c-2.3-2.7-3.4-6.1-3.4-10.2v-82.6
				c0-10.2,5.2-15.3,15.6-15.3h25.5c5.3,0,10.2,0.7,14.8,2c4.5,1.3,8.7,3.5,12.4,6.6c7.7,6.3,11.6,14.5,11.6,24.5
				c0,4.9-0.7,9.2-2,13c-1.3,3.8-3.5,7.2-6.6,10.2c-2.3,2.2-5,4-8.1,5.3c-2.1,1-5.3,2-9.5,3l21.6,23.5c1.7,1.7,2.9,3.1,3.8,4.4
				c0.9,1.3,1.6,2.8,2.2,4.6V1589z M688.4,1524.3c0-3.8-1.4-6.9-4.3-9.5c-2.9-2.5-6.2-3.8-10-3.8h-15.3v25.9h15.7
				c4,0,7.3-1.1,10-3.4C687.1,1531.3,688.4,1528.2,688.4,1524.3z"/>
			<path class="st2" d="M775.5,1587c0,4-1.1,7.4-3.4,10.1c-2.3,2.8-5.3,4.1-9.1,4.1c-4.1,0-7.2-1.4-9.5-4.1
				c-2.3-2.7-3.4-6.1-3.4-10.2v-85.6c0-4,1.2-7.4,3.5-10.1c2.3-2.8,5.4-4.1,9.4-4.1c3.8,0,6.9,1.4,9.1,4.1c2.3,2.7,3.4,6.1,3.4,10.2
				V1587z"/>
			<path class="st2" d="M912,1586.7c0,2.2-0.3,4.2-0.7,5.9c-0.5,1.7-1.4,3.3-2.6,4.7c-2.3,2.7-5.2,4-8.6,4c-4.3,0-7.6-1.7-10-5
				l-50.2-63.7v54.4c0,4-1.1,7.4-3.4,10.1c-2.3,2.8-5.3,4.1-9.1,4.1c-4.1,0-7.2-1.4-9.5-4.1c-2.3-2.7-3.4-6.1-3.4-10.2v-86.6
				c0-3.8,1.2-6.9,3.5-9.5c2.3-2.5,5.4-3.8,9.1-3.8c4,0,7.5,1.9,10.6,5.6l48.9,61.7v-53.1c0-4,1.2-7.4,3.5-10.1
				c2.3-2.8,5.4-4.1,9.4-4.1c3.8,0,6.9,1.4,9.1,4.1c2.3,2.7,3.4,6.1,3.4,10.2V1586.7z"/>
			<path class="st2" d="M1051.3,1550.1c0,6.9-1.2,13.6-3.7,20.1c-2.5,6.5-6,12.3-10.6,17.2c-4.6,4.9-10,8.7-16.3,11.3
				c-6.3,2.6-13,3.9-20.1,3.9c-8,0-15.5-1.5-22.6-4.6c-7.1-3-13.1-7.4-18.1-13.1c-5-5.7-8.6-12-10.8-19c-2.2-7-3.3-14.5-3.3-22.7
				c0-15.9,5.3-29.4,15.9-40.5c10.6-11.1,23.9-16.6,39.8-16.6c5.7,0,11.2,0.6,16.3,1.9s10.1,3.3,14.8,6c3.3,2.2,5.7,4.1,7.3,5.8
				c2.4,2.5,3.6,5.2,3.6,8.1v1.3c0,2.9-1.1,5.4-3.3,7.6c-2.2,2.2-4.8,3.3-7.6,3.3c-1.5,0-3-0.2-4.5-0.7c-1.4-0.5-2.9-1.2-4.5-2.2
				l-6.6-4.3c-4.3-2.7-9.5-4-15.6-4c-9.2,0-16.4,3.7-21.7,11.2c-4.8,6.7-7.1,14.8-7.1,24.5c0,9.8,2.3,17.9,6.8,24.3
				c5.2,7.3,12.4,11,21.7,11c4.1,0,7.7-0.6,10.7-1.9c3-1.3,5.7-3.5,7.9-6.8c1.5-2,2.7-4.1,3.6-6.3c0.8-2.2,1.5-4.9,2.1-8h-14.9
				c-3.5,0-6.5-1-9-3c-2.4-2-3.6-4.8-3.6-8.4c0-3.5,1.2-6.2,3.7-8.3c2.5-2.1,5.4-3.1,8.9-3.1h27.2c5.1,0,8.6,1.3,10.6,3.9
				C1050.3,1540.6,1051.3,1544.6,1051.3,1550.1z"/>
			<path class="st2" d="M1226.4,1588.2c0,3.5-1.2,6.2-3.6,8.3c-2.4,2.1-5.3,3.1-8.7,3.1H1164c-2.8,0-4.9-0.2-6.5-0.7
				c-1.6-0.4-3.2-1.4-4.7-3c-2-2-3-4.2-3-6.6l0.3-1.3c0-2.1,0.7-4.2,2.2-6.3c0.7-1,2.2-2.6,4.5-4.9l25.2-28.9
				c5.3-6.2,8.7-10.4,10.1-12.5c4.1-5.9,6.1-10.7,6.1-14.5c0-3.1-1-5.8-3-8.1c-2-2.3-4.4-3.5-7.3-3.5c-3.3,0-6,1-8.1,3
				c-2.1,2-3.6,4.6-4.5,8c-1.4,6.1-3,10-4.7,11.7c-1.7,1.7-4.1,2.6-7.2,2.6c-3.5,0-6.4-1.2-8.5-3.6c-2.1-2.4-3.2-5.4-3.2-9
				c0-9.7,3.8-18.1,11.3-25.2c7.5-7.1,16.1-10.6,25.9-10.6c9.6,0,17.9,3.1,24.8,9.4c6.9,6.2,10.4,14.2,10.4,23.8
				c0,6.1-1.4,12-4.1,17.9c-2.2,4.7-5.6,9.9-10.1,15.6c-7,8.6-14.4,16.7-22.2,24.2h26.5c3.5,0,6.5,1,8.8,3
				C1225.2,1581.9,1226.4,1584.7,1226.4,1588.2z"/>
			<path class="st2" d="M1342.4,1544.2c0,14.9-3.2,27.8-9.5,38.6c-7.6,13.2-18.4,19.7-32.3,19.7c-4.9,0-9.6-1.2-14.2-3.6
				c-4.6-2.4-8.6-5.6-12-9.6c-5-5.5-8.5-12.1-10.5-19.7c-2-7.6-3.1-15.9-3.1-24.7c0-9.5,0.8-17.5,2.5-24c2.2-8.6,5.9-15.9,11.1-21.7
				c3.2-3.8,7.2-6.9,11.9-9.3c4.8-2.4,9.5-3.6,14.3-3.6c13.8,0,24.5,6.5,32.2,19.6C1339.2,1516.7,1342.4,1529.5,1342.4,1544.2z
				 M1316.6,1544.2c0-7-1-13.5-3-19.7c-2.9-9-7.2-13.4-12.9-13.4c-5.5,0-9.5,4.4-11.8,13.3c-1.4,5.5-2.2,12.4-2.2,20.6
				c0,7.4,0.8,13.9,2.3,19.6c2.4,8.6,6.3,12.9,11.6,12.9c6,0,10.3-4.4,13.1-13.1C1315.6,1558.4,1316.6,1551.7,1316.6,1544.2z"/>
			<path class="st2" d="M1449.9,1588.2c0,3.5-1.2,6.2-3.6,8.3c-2.4,2.1-5.3,3.1-8.7,3.1h-50.1c-2.8,0-4.9-0.2-6.5-0.7
				c-1.6-0.4-3.2-1.4-4.7-3c-2-2-3-4.2-3-6.6l0.3-1.3c0-2.1,0.7-4.2,2.2-6.3c0.7-1,2.2-2.6,4.5-4.9l25.2-28.9
				c5.3-6.2,8.7-10.4,10.1-12.5c4.1-5.9,6.1-10.7,6.1-14.5c0-3.1-1-5.8-3-8.1c-2-2.3-4.4-3.5-7.3-3.5c-3.3,0-6,1-8.1,3
				c-2.1,2-3.6,4.6-4.5,8c-1.4,6.1-3,10-4.7,11.7c-1.7,1.7-4.1,2.6-7.2,2.6c-3.5,0-6.4-1.2-8.5-3.6c-2.1-2.4-3.2-5.4-3.2-9
				c0-9.7,3.8-18.1,11.3-25.2c7.5-7.1,16.1-10.6,25.9-10.6c9.6,0,17.9,3.1,24.8,9.4c6.9,6.2,10.4,14.2,10.4,23.8
				c0,6.1-1.4,12-4.1,17.9c-2.2,4.7-5.6,9.9-10.1,15.6c-7,8.6-14.4,16.7-22.2,24.2h26.5c3.5,0,6.5,1,8.8,3
				C1448.7,1581.9,1449.9,1584.7,1449.9,1588.2z"/>
			<path class="st2" d="M1539.4,1587.3c0,3.9-1.1,7.2-3.3,9.9c-2.2,2.7-5.3,4.1-9.3,4.1c-3.9,0-7-1.4-9.3-4.1
				c-2.3-2.7-3.4-6-3.4-9.8v-75.8h-7.6c-3.5,0-6.4-1-8.7-3c-2.3-2-3.5-4.8-3.5-8.4c0-3.5,1.2-6.2,3.6-8.3c2.4-2.1,5.3-3.1,8.7-3.1
				h19.6c8.8,0,13.3,4.5,13.3,13.6V1587.3z"/>
		</g>
	</g>
	<g>
		<polygon class="st0" points="143.8,807.6 80.8,1040.6 112.3,1236.7 238.8,1350.6 544.8,1342.6 643.8,1170.6 643.8,966.1 
			553.9,807.6 389.4,749.2 		"/>
	</g>
	<g id="DJRound_3_">
		<g>
			<circle class="st1" cx="360.8" cy="1059.6" r="38.6"/>
		</g>
		<g>
			<path class="st1" d="M360.8,796.6c-145.3,0-263,117.7-263,263s117.7,263,263,263s263-117.7,263-263S506,796.6,360.8,796.6z
				 M218.1,916.9c-9.4,9.4-18,19.8-25.4,30.8c-7.5,11.1-14,23-19.2,35.3c-5.3,12.5-9.4,25.7-12.1,39c-1.2,6-6.5,10.1-12.4,10.1
				c-0.8,0-1.7-0.1-2.5-0.3c-6.8-1.4-11.3-8.1-9.9-14.9c3.1-15,7.6-29.7,13.6-43.8c5.8-13.8,13.1-27.2,21.5-39.6
				c8.3-12.4,17.9-24,28.5-34.5c10.6-10.6,22.2-20.1,34.5-28.5c12.5-8.4,25.8-15.7,39.6-21.5c14.1-6,28.8-10.5,43.8-13.6
				c15.4-3.1,31.2-4.7,47-4.7c7,0,12.6,5.7,12.6,12.6c0,7-5.7,12.6-12.6,12.6c-14.1,0-28.2,1.4-41.9,4.2c-13.3,2.7-26.5,6.8-39,12.1
				c-12.3,5.2-24.2,11.7-35.3,19.2C237.9,898.9,227.5,907.5,218.1,916.9z M360.8,1150c-49.9,0-90.4-40.5-90.4-90.4
				c0-49.9,40.5-90.4,90.4-90.4s90.4,40.5,90.4,90.4C451.2,1109.5,410.7,1150,360.8,1150z"/>
		</g>
	</g>
</g>
</svg>
