<?xml version="1.0" encoding="utf-8"?>
<!-- Generator: Adobe Illustrator 24.3.0, SVG Export Plug-In . SVG Version: 6.00 Build 0)  -->
<svg version="1.1" id="Ebene_1" xmlns="http://www.w3.org/2000/svg" xmlns:xlink="http://www.w3.org/1999/xlink" x="0px" y="0px"
	 viewBox="0 0 1969.46 1676.56" style="enable-background:new 0 0 1969.46 1676.56;" xml:space="preserve">
<style type="text/css">
	.st0{fill:#12A2C9;}
	.st1{enable-background:new    ;}
	.st2{fill:#FFFFFF;}
	.st3{fill:#010010;}
</style>
<g id="Winter">
	<g>
		<g>
			<path class="st0" d="M1398.99,76.86c364.85,172.48,611.41,653.42,529.59,993.95c-82.92,341.64-494.21,542.86-890.02,591.51
				c-395.81,50.86-775.04-51.96-934.25-326.16c-158.1-273.09-97.29-718.65,175.8-1009.43C552.09,37.06,1034.14-95.62,1398.99,76.86z
				"/>
		</g>
	</g>
	<g class="st1">
		<path class="st2" d="M474.14,118.08c0,3.83-0.58,7.56-1.75,11.19c-1.17,3.62-2.92,6.73-5.25,9.31c-2.75,3-6.31,5.25-10.69,6.75
			s-8.81,2.25-13.31,2.25c-4,0-7.83-0.36-11.5-1.06c-3.67-0.71-7.17-1.85-10.5-3.44c-2.17-1.08-3.88-2.48-5.12-4.19
			c-1.25-1.71-1.88-3.73-1.88-6.06c0-2.25,0.81-4.23,2.44-5.94c1.62-1.71,3.56-2.56,5.81-2.56c1.67,0,3.25,0.25,4.75,0.75l6.75,2.5
			c2.92,1.33,6,2,9.25,2c2.83,0,5.21-0.71,7.12-2.12c2.25-1.67,3.38-3.88,3.38-6.62s-0.96-4.73-2.88-5.94
			c-1.92-1.21-4.12-2.23-6.62-3.06c-0.58-0.17-2.92-0.83-7-2c-7.58-2.25-12.92-4.67-16-7.25c-4.33-3.67-6.5-9-6.5-16
			c0-8,3.08-14.54,9.25-19.62c5.83-4.75,12.83-7.12,21-7.12c5.58,0,10.42,0.71,14.5,2.12c6,2.08,9,5.29,9,9.62
			c0,2.67-0.83,4.92-2.5,6.75c-1.67,1.83-3.75,2.75-6.25,2.75c-0.67,0-1.67-0.17-3-0.5l-3.5-1.25c-2.75-1-5.58-1.5-8.5-1.5
			c-2.5,0-4.71,0.56-6.62,1.69c-1.92,1.12-2.88,2.81-2.88,5.06c0,1.92,0.83,3.54,2.5,4.88c1.17,0.92,2.92,1.71,5.25,2.38l5,1.25
			c8.17,2.25,14.21,4.92,18.12,8C471.43,105.33,474.14,111,474.14,118.08z"/>
		<path class="st2" d="M611.89,89.33c0,3.83-0.5,7.42-1.5,10.75c-1,3.33-2.57,6.33-4.73,9c-2.49,3-5.55,5.21-9.16,6.62
			c-3.61,1.42-7.62,2.12-12.03,2.12h-14.46v18c0,3-0.84,5.54-2.52,7.62s-4.03,3.12-7.04,3.12c-2.94,0-5.27-1.02-6.98-3.06
			s-2.58-4.6-2.58-7.69V73.58c0-3.67,1-6.54,3-8.62c2-2.08,4.83-3.12,8.5-3.12h19.5c4.5,0,8.5,0.5,12,1.5s6.58,2.81,9.25,5.44
			c2.67,2.62,4.79,5.79,6.38,9.5C611.09,81.98,611.89,85.66,611.89,89.33z M592.39,90.33v-1c0-3.17-1.12-5.75-3.36-7.75
			s-5.01-3-8.33-3h-10.69v22.75h9.7c2.07,0,3.85-0.23,5.35-0.69c1.49-0.46,2.86-1.39,4.1-2.81
			C591.31,95.66,592.39,93.16,592.39,90.33z"/>
		<path class="st2" d="M704.51,135.83c0,3-0.85,5.54-2.55,7.62s-3.99,3.12-6.89,3.12c-3.06,0-5.45-1.02-7.14-3.06
			s-2.54-4.6-2.54-7.69v-64.5c0-3,0.87-5.54,2.61-7.62c1.74-2.08,4.1-3.12,7.08-3.12c2.9,0,5.19,1.02,6.89,3.06
			c1.7,2.04,2.55,4.61,2.55,7.69V135.83z"/>
		<path class="st2" d="M856.89,135.58c0,1.67-0.19,3.15-0.56,4.44c-0.38,1.29-1.02,2.48-1.94,3.56c-1.75,2-3.93,3-6.52,3
			c-3.26,0-5.76-1.25-7.52-3.75l-37.84-48v41c0,3-0.85,5.54-2.55,7.62s-3.99,3.12-6.89,3.12c-3.06,0-5.45-1.02-7.14-3.06
			s-2.54-4.6-2.54-7.69V70.58c0-2.83,0.88-5.21,2.63-7.12c1.75-1.92,4.05-2.88,6.89-2.88c3.01,0,5.68,1.42,8.02,4.25l36.83,46.5v-40
			c0-3,0.87-5.54,2.61-7.62c1.74-2.08,4.1-3.12,7.08-3.12c2.9,0,5.19,1.02,6.89,3.06c1.7,2.04,2.55,4.61,2.55,7.69V135.58z"/>
		<path class="st2" d="M993.13,118.08c0,3.83-0.58,7.56-1.75,11.19c-1.17,3.62-2.92,6.73-5.25,9.31c-2.75,3-6.31,5.25-10.69,6.75
			s-8.81,2.25-13.31,2.25c-4,0-7.83-0.36-11.5-1.06c-3.67-0.71-7.17-1.85-10.5-3.44c-2.17-1.08-3.88-2.48-5.12-4.19
			c-1.25-1.71-1.88-3.73-1.88-6.06c0-2.25,0.81-4.23,2.44-5.94c1.62-1.71,3.56-2.56,5.81-2.56c1.67,0,3.25,0.25,4.75,0.75l6.75,2.5
			c2.92,1.33,6,2,9.25,2c2.83,0,5.21-0.71,7.12-2.12c2.25-1.67,3.38-3.88,3.38-6.62s-0.96-4.73-2.88-5.94
			c-1.92-1.21-4.12-2.23-6.62-3.06c-0.58-0.17-2.92-0.83-7-2c-7.58-2.25-12.92-4.67-16-7.25c-4.33-3.67-6.5-9-6.5-16
			c0-8,3.08-14.54,9.25-19.62c5.83-4.75,12.83-7.12,21-7.12c5.58,0,10.42,0.71,14.5,2.12c6,2.08,9,5.29,9,9.62
			c0,2.67-0.83,4.92-2.5,6.75c-1.67,1.83-3.75,2.75-6.25,2.75c-0.67,0-1.67-0.17-3-0.5l-3.5-1.25c-2.75-1-5.58-1.5-8.5-1.5
			c-2.5,0-4.71,0.56-6.62,1.69c-1.92,1.12-2.88,2.81-2.88,5.06c0,1.92,0.83,3.54,2.5,4.88c1.17,0.92,2.92,1.71,5.25,2.38l5,1.25
			c8.17,2.25,14.21,4.92,18.12,8C990.42,105.33,993.13,111,993.13,118.08z"/>
		<path class="st2" d="M1143.13,135.83c0,3-0.87,5.54-2.61,7.62s-4.1,3.12-7.08,3.12c-2.9,0-5.2-1.02-6.89-3.05
			c-1.7-2.04-2.54-4.59-2.54-7.66V111.2h-35.5v24.66c0,2.99-0.84,5.52-2.52,7.6c-1.68,2.07-4.03,3.11-7.04,3.11
			c-2.94,0-5.27-1.02-6.98-3.06s-2.58-4.6-2.58-7.69v-64.5c0-3,0.84-5.54,2.52-7.62c1.68-2.08,4.03-3.12,7.05-3.12
			c3.1,0,5.47,1,7.11,3c1.63,2,2.45,4.58,2.45,7.75v22.75h35.5V71.33c0-3,0.85-5.54,2.54-7.62c1.7-2.08,3.99-3.12,6.89-3.12
			c3.06,0,5.44,1.02,7.14,3.06c1.7,2.04,2.55,4.61,2.55,7.69V135.83z"/>
		<path class="st2" d="M1291.38,138.83c-0.25,2.5-1.4,4.42-3.44,5.75c-2.04,1.33-4.48,2-7.31,2c-1.92,0-3.58-0.79-5-2.38
			c-1.42-1.58-2.42-3.46-3-5.62l-2.5-9.25h-32l-2,7.25c-0.83,2.75-1.79,4.92-2.88,6.5c-1.58,2.33-3.46,3.5-5.62,3.5
			c-2.75,0-5.19-0.67-7.31-2s-3.36-3.25-3.69-5.75l-0.25-1c0-0.58,0.1-1.35,0.31-2.31c0.21-0.96,0.44-1.85,0.69-2.69l22.5-61.75
			c1.17-3.25,3-5.85,5.5-7.81c2.5-1.96,5.42-2.94,8.75-2.94c3.25,0,6.1,0.98,8.56,2.94c2.46,1.96,4.27,4.56,5.44,7.81l22.5,61.75
			c0.5,1.25,0.75,2.75,0.75,4.5V138.83z M1264.38,112.2l-10.25-31.62l-10,31.62H1264.38z"/>
		<path class="st2" d="M1425.88,137.33c0,2.25-0.77,4.36-2.32,6.31s-3.36,2.94-5.45,2.94c-2.01,0-3.82-0.31-5.45-0.94
			c-1.63-0.62-2.99-1.73-4.07-3.31l-24.82-31v24.5c0,3-0.85,5.54-2.55,7.62s-3.99,3.12-6.89,3.12c-3.06,0-5.45-1.02-7.14-3.06
			s-2.54-4.6-2.54-7.69V73.58c0-7.67,3.92-11.5,11.75-11.5h19.25c4,0,7.71,0.5,11.12,1.5c3.42,1,6.54,2.67,9.38,5
			c5.83,4.75,8.75,10.92,8.75,18.5c0,3.67-0.5,6.94-1.5,9.81s-2.67,5.44-5,7.69c-1.75,1.67-3.79,3-6.12,4
			c-1.58,0.75-3.96,1.5-7.12,2.25l16.25,17.75c1.25,1.25,2.21,2.36,2.88,3.31c0.67,0.96,1.21,2.11,1.62,3.44V137.33z M1406.13,88.58
			c0-2.83-1.09-5.21-3.27-7.12c-2.18-1.92-4.69-2.88-7.54-2.88h-11.56v19.5h11.82c3.02,0,5.53-0.85,7.54-2.56
			C1405.12,93.81,1406.13,91.5,1406.13,88.58z"/>
	</g>
	<g class="st1">
		<path class="st2" d="M1554.63,136.89c0,2.56-0.9,4.61-2.69,6.14c-1.79,1.53-4.06,2.29-6.81,2.29h-27.25
			c-3.75,0-6.65-1.02-8.69-3.06c-2.04-2.04-3.06-4.94-3.06-8.69v-60c0-3.67,1-6.54,3-8.62c2-2.08,4.92-3.12,8.75-3.12h27.25
			c2.83,0,5.12,0.75,6.88,2.23s2.62,3.64,2.62,6.45c0,2.56-0.9,4.61-2.7,6.14c-1.8,1.53-4.08,2.29-6.84,2.29h-19.83v15.88h17.83
			c2.85,0,5.15,0.75,6.91,2.23s2.64,3.64,2.64,6.45c0,2.56-0.9,4.61-2.7,6.14s-4.08,2.29-6.84,2.29h-17.83v16.25h19.83
			c2.85,0,5.15,0.75,6.9,2.23S1554.63,134.08,1554.63,136.89z"/>
	</g>
	<g class="st1">
		<path class="st2" d="M391.5,585.73c0,23-3.5,45.38-10.5,67.12c-7.01,21.75-17.51,40.38-31.5,55.88c-16.5,18-37.88,31.5-64.12,40.5
			s-52.88,13.5-79.88,13.5c-24,0-47-2.13-69-6.38c-22.01-4.25-43.01-11.12-63-20.62c-13.01-6.49-23.25-14.87-30.75-25.12
			c-7.5-10.24-11.25-22.37-11.25-36.38c0-13.5,4.88-25.37,14.62-35.62c9.75-10.24,21.38-15.38,34.88-15.38c10,0,19.5,1.5,28.5,4.5
			l40.5,15c17.5,8,36,12,55.5,12c16.99,0,31.24-4.24,42.75-12.75c13.5-10,20.25-23.25,20.25-39.75s-5.75-28.37-17.25-35.62
			c-11.51-7.24-24.75-13.37-39.75-18.38c-3.5-1-17.51-4.99-42-12c-45.5-13.5-77.51-28-96-43.5c-26-22-39-54-39-96
			c0-48,18.49-87.25,55.5-117.75c34.99-28.5,76.99-42.75,126-42.75c33.49,0,62.5,4.25,87,12.75c36,12.5,54,31.76,54,57.75
			c0,16.01-5,29.51-15,40.5c-10.01,11-22.5,16.5-37.5,16.5c-4.01,0-10.01-1-18-3l-21-7.5c-16.5-6-33.5-9-51-9
			c-15,0-28.25,3.38-39.75,10.12c-11.51,6.75-17.25,16.88-17.25,30.38c0,11.51,4.99,21.26,15,29.25c7,5.51,17.5,10.25,31.5,14.25
			l30,7.5c49,13.5,85.24,29.51,108.75,48C375.25,509.23,391.5,543.24,391.5,585.73z"/>
		<path class="st2" d="M809.24,413.23c0,23-3,44.51-8.98,64.5c-5.98,20-15.45,38-28.41,54c-14.96,18-33.29,31.25-54.97,39.75
			c-21.68,8.51-45.74,12.75-72.15,12.75h-86.74v108c0,18-5.04,33.26-15.11,45.75s-24.15,18.75-42.27,18.75
			c-17.62,0-31.59-6.13-41.91-18.38s-15.47-27.62-15.47-46.12v-373.5c0-22,6-39.25,18-51.75c12-12.49,28.99-18.75,51-18.75h117
			c27,0,51,3,72,9s39.49,16.88,55.5,32.62c16,15.75,28.75,34.76,38.25,57C804.48,369.11,809.24,391.23,809.24,413.23z
			 M692.24,419.23v-6c0-19-6.71-34.5-20.14-46.5s-30.08-18-49.97-18h-64.14v136.5h58.17c12.42,0,23.12-1.37,32.07-4.12
			c8.95-2.74,17.16-8.37,24.61-16.88C685.77,451.23,692.24,436.23,692.24,419.23z"/>
		<path class="st2" d="M1132.49,698.6c0,15.39-5.38,27.67-16.12,36.86c-10.76,9.19-24.38,13.77-40.88,13.77h-163.5
			c-22.5,0-39.88-6.12-52.12-18.38c-12.26-12.25-18.38-29.62-18.38-52.12v-360c0-22,6-39.25,18-51.75
			c12-12.49,29.5-18.75,52.5-18.75h163.5c16.99,0,30.75,4.48,41.25,13.41s15.75,21.84,15.75,38.72c0,15.39-5.4,27.67-16.2,36.86
			c-10.8,9.19-24.48,13.77-41.05,13.77h-119v95.25h106.99c17.07,0,30.89,4.48,41.44,13.41s15.82,21.84,15.82,38.72
			c0,15.39-5.4,27.67-16.21,36.86s-24.48,13.77-41.05,13.77H956.24v97.5h119c17.07,0,30.88,4.48,41.43,13.41
			S1132.49,681.73,1132.49,698.6z"/>
		<path class="st2" d="M1469.23,698.6c0,15.39-5.38,27.67-16.12,36.86c-10.76,9.19-24.38,13.77-40.88,13.77h-163.5
			c-22.5,0-39.88-6.12-52.12-18.38c-12.26-12.25-18.38-29.62-18.38-52.12v-360c0-22,6-39.25,18-51.75
			c12-12.49,29.5-18.75,52.5-18.75h163.5c16.99,0,30.75,4.48,41.25,13.41s15.75,21.84,15.75,38.72c0,15.39-5.4,27.67-16.2,36.86
			c-10.8,9.19-24.48,13.77-41.05,13.77h-119v95.25h106.99c17.07,0,30.89,4.48,41.44,13.41s15.82,21.84,15.82,38.72
			c0,15.39-5.4,27.67-16.21,36.86s-24.48,13.77-41.05,13.77h-106.99v97.5h119c17.07,0,30.88,4.48,41.43,13.41
			S1469.23,681.73,1469.23,698.6z"/>
		<path class="st2" d="M1955.97,690.73c0,10.01-1.14,18.88-3.39,26.62c-2.25,7.76-6.14,14.88-11.65,21.38
			c-10.52,12-23.55,18-39.09,18c-19.55,0-34.57-7.5-45.09-22.5l-227.03-288v246c0,18-5.1,33.26-15.28,45.75
			s-23.96,18.75-41.34,18.75c-18.39,0-32.67-6.13-42.86-18.38s-15.27-27.62-15.27-46.12v-391.5c0-16.99,5.26-31.24,15.79-42.75
			c10.52-11.5,24.3-17.25,41.34-17.25c18.05,0,34.08,8.51,48.12,25.5l221,279v-240c0-18,5.21-33.25,15.64-45.75
			c10.43-12.49,24.6-18.75,42.48-18.75c17.38,0,31.16,6.13,41.34,18.38c10.18,12.26,15.28,27.63,15.28,46.12V690.73z"/>
	</g>
	<g class="st1">
		<path class="st2" d="M627.74,1045.73c0,41-6.26,78.26-18.75,111.75c-14,37.01-35.25,68.25-63.75,93.75
			c-22.01,20.51-47,35.88-75,46.12c-28.01,10.24-58.01,15.38-90,15.38c-34.01,0-66.5-6.38-97.5-19.12
			c-31.01-12.75-58.25-31.62-81.75-56.62c-23.51-25-40.76-53.74-51.75-86.25c-11-32.5-16.5-67.5-16.5-105
			c0-39.49,6.75-76.12,20.25-109.88s34.24-63.12,62.25-88.12c45.49-40.99,100.5-61.5,165-61.5c73.99,0,133.75,24.5,179.25,73.5
			C604.98,908.74,627.74,970.73,627.74,1045.73z M504.74,1045.71c0-43.7-9.75-79.62-29.25-107.74
			c-22.5-32.65-54.75-48.98-96.75-48.98c-15.5,0-31.01,3.52-46.5,10.55c-15.5,7.03-28.5,16.58-39,28.64
			c-13.01,14.57-22.5,32.14-28.5,52.75s-9,42.2-9,64.79c0,44.72,9.49,81.89,28.5,111.53c22.5,35.17,54.49,52.75,96,52.75
			c42.49,0,74.74-17.33,96.75-52C495.48,1128.85,504.74,1091.43,504.74,1045.71z"/>
		<path class="st2" d="M1036.49,963.23c0,23-3,44.51-8.98,64.5c-5.98,20-15.45,38-28.41,54c-14.97,18-33.29,31.25-54.97,39.75
			c-21.68,8.51-45.74,12.75-72.15,12.75h-86.74v108c0,18-5.04,33.26-15.11,45.75s-24.15,18.75-42.27,18.75
			c-17.62,0-31.59-6.13-41.91-18.38s-15.47-27.62-15.47-46.12v-373.5c0-22,6-39.25,18-51.75c12-12.49,28.99-18.75,51-18.75h117
			c27,0,51,3,72,9s39.49,16.88,55.5,32.62c16,15.75,28.75,34.76,38.25,57C1031.73,919.11,1036.49,941.23,1036.49,963.23z
			 M919.49,969.23v-6c0-19-6.71-34.5-20.14-46.5s-30.08-18-49.97-18h-64.14v136.5h58.17c12.42,0,23.12-1.37,32.07-4.12
			c8.95-2.74,17.16-8.37,24.61-16.88C913.02,1001.23,919.49,986.23,919.49,969.23z"/>
		<path class="st2" d="M1359.74,1248.6c0,15.39-5.38,27.67-16.12,36.86c-10.76,9.19-24.38,13.77-40.88,13.77h-163.5
			c-22.5,0-39.88-6.12-52.12-18.38c-12.26-12.25-18.38-29.62-18.38-52.12v-360c0-22,6-39.25,18-51.75
			c12-12.49,29.5-18.75,52.5-18.75h163.5c16.99,0,30.75,4.48,41.25,13.41s15.75,21.84,15.75,38.72c0,15.39-5.4,27.67-16.2,36.86
			c-10.8,9.19-24.48,13.77-41.05,13.77h-119v95.25h106.99c17.07,0,30.89,4.48,41.44,13.41s15.82,21.84,15.82,38.72
			c0,15.39-5.4,27.67-16.21,36.86s-24.48,13.77-41.05,13.77h-106.99v97.5h119c17.07,0,30.88,4.48,41.43,13.41
			S1359.74,1231.73,1359.74,1248.6z"/>
		<path class="st2" d="M1846.48,1240.73c0,10.01-1.14,18.88-3.39,26.62c-2.25,7.76-6.14,14.88-11.65,21.38
			c-10.52,12-23.55,18-39.09,18c-19.55,0-34.57-7.5-45.09-22.5l-227.03-288v246c0,18-5.1,33.26-15.28,45.75
			s-23.96,18.75-41.34,18.75c-18.39,0-32.67-6.13-42.86-18.38s-15.27-27.62-15.27-46.12v-391.5c0-16.99,5.26-31.24,15.79-42.75
			c10.52-11.5,24.3-17.25,41.34-17.25c18.05,0,34.08,8.51,48.12,25.5l221,279v-240c0-18,5.21-33.25,15.64-45.75
			c10.43-12.49,24.6-18.75,42.48-18.75c17.38,0,31.16,6.13,41.34,18.38c10.18,12.26,15.28,27.63,15.28,46.12V1240.73z"/>
	</g>
	<g>
		<g>
			<path class="st2" d="M1672.09,1676.56H297.42c-72.35,0-131-58.65-131-131l0,0c0-72.35,58.65-131,131-131h1374.67
				c72.35,0,131,58.65,131,131l0,0C1803.09,1617.91,1744.44,1676.56,1672.09,1676.56z"/>
		</g>
		<g class="st1">
			<path class="st3" d="M539.53,1500.11c0,1.77-0.11,2.98-0.33,3.65l-19.9,83.57c-1,4.2-2.96,7.57-5.89,10.12
				c-2.93,2.54-6.5,3.81-10.7,3.81c-4.64,0-8.32-1.16-11.03-3.48c-2.71-2.32-4.89-5.8-6.55-10.45l-16.91-52.4l-15.59,51.07
				c-1.55,5.09-3.76,8.9-6.63,11.44c-2.88,2.54-6.86,3.81-11.94,3.81c-3.32,0-6.5-1.08-9.54-3.23c-3.04-2.16-4.95-4.83-5.72-8.04
				l-20.89-86.23c-0.33-1.21-0.58-2.27-0.75-3.15c-0.17-0.88-0.25-1.38-0.25-1.49l0.66-3.32c0.55-2.1,1.82-4.06,3.81-5.89
				c1.99-1.82,4.03-2.74,6.14-2.74c2.65,0,4.83,0.22,6.55,0.66c1.71,0.44,3.15,1.41,4.31,2.9s2.02,2.93,2.57,4.31
				c0.55,1.38,1.05,3.18,1.49,5.39l13.6,58.37l18.9-60.03c1.1-3.43,2.65-6.14,4.64-8.12c2.43-2.32,5.31-3.48,8.62-3.48
				c3.65,0,6.55,0.99,8.71,2.98c2.16,1.99,3.79,4.87,4.89,8.62l19.24,60.03l12.93-58.04c0.44-1.66,0.97-3.4,1.58-5.22
				c0.61-1.82,1.41-3.34,2.4-4.56c0.99-1.21,2.29-2.15,3.9-2.82c1.6-0.66,4.06-0.99,7.38-0.99c2.1,0,4.15,0.94,6.14,2.82
				c1.99,1.88,3.26,3.93,3.81,6.13c0.11,0.44,0.22,1.05,0.33,1.82C539.53,1498.73,539.53,1499.45,539.53,1500.11z"/>
			<path class="st3" d="M594.75,1587c0,3.98-1.13,7.35-3.38,10.12c-2.25,2.76-5.3,4.15-9.14,4.15c-4.07,0-7.22-1.36-9.48-4.06
				c-2.25-2.71-3.38-6.11-3.38-10.2v-85.56c0-3.98,1.15-7.35,3.46-10.12c2.31-2.76,5.44-4.14,9.39-4.14c3.84,0,6.89,1.35,9.14,4.06
				c2.25,2.71,3.38,6.11,3.38,10.2V1587z"/>
			<path class="st3" d="M730.56,1586.67c0,2.21-0.25,4.18-0.75,5.89c-0.5,1.72-1.36,3.29-2.58,4.73c-2.33,2.65-5.21,3.98-8.64,3.98
				c-4.32,0-7.64-1.66-9.97-4.97l-50.2-63.68V1587c0,3.98-1.13,7.35-3.38,10.12c-2.25,2.76-5.3,4.15-9.14,4.15
				c-4.07,0-7.22-1.36-9.48-4.06c-2.25-2.71-3.38-6.11-3.38-10.2v-86.56c0-3.76,1.16-6.91,3.49-9.45c2.33-2.54,5.37-3.81,9.14-3.81
				c3.99,0,7.53,1.88,10.64,5.64l48.86,61.69v-53.06c0-3.98,1.15-7.35,3.46-10.12c2.31-2.76,5.44-4.14,9.39-4.14
				c3.84,0,6.89,1.35,9.14,4.06s3.38,6.11,3.38,10.2V1586.67z"/>
			<path class="st3" d="M841.16,1500.36c0,3.4-1.19,6.12-3.57,8.15c-2.38,2.03-5.39,3.04-9.04,3.04h-14.59v75.42
				c0,3.99-1.1,7.37-3.3,10.13s-5.27,4.15-9.22,4.15c-4.07,0-7.22-1.36-9.48-4.07s-3.38-6.12-3.38-10.22v-75.42h-14.92
				c-3.76,0-6.8-0.96-9.12-2.88c-2.32-1.92-3.48-4.69-3.48-8.31c0-3.51,1.21-6.31,3.64-8.4c2.43-2.08,5.4-3.13,8.94-3.13h54.94
				c3.75,0,6.79,0.99,9.1,2.96S841.16,1496.63,841.16,1500.36z"/>
			<path class="st3" d="M935.18,1588.41c0,3.4-1.19,6.12-3.56,8.15c-2.38,2.03-5.39,3.04-9.04,3.04h-36.15
				c-4.97,0-8.82-1.35-11.52-4.06c-2.71-2.71-4.06-6.55-4.06-11.53v-79.6c0-4.86,1.33-8.68,3.98-11.44
				c2.65-2.76,6.52-4.14,11.61-4.14h36.15c3.76,0,6.8,0.99,9.12,2.96c2.32,1.97,3.48,4.83,3.48,8.56c0,3.4-1.19,6.12-3.58,8.15
				c-2.39,2.03-5.41,3.04-9.08,3.04h-26.31v21.06h23.66c3.77,0,6.83,0.99,9.16,2.96s3.5,4.83,3.5,8.56c0,3.4-1.19,6.12-3.58,8.15
				s-5.41,3.04-9.08,3.04h-23.66v21.56h26.31c3.77,0,6.83,0.99,9.16,2.96C934.01,1581.83,935.18,1584.68,935.18,1588.41z"/>
			<path class="st3" d="M1050.59,1588.99c0,2.98-1.03,5.78-3.08,8.38c-2.05,2.6-4.46,3.9-7.23,3.9c-2.66,0-5.07-0.41-7.23-1.24
				c-2.16-0.83-3.96-2.29-5.41-4.39l-32.93-41.12v32.5c0,3.98-1.13,7.35-3.38,10.12c-2.25,2.76-5.3,4.15-9.14,4.15
				c-4.07,0-7.22-1.36-9.48-4.06c-2.25-2.71-3.38-6.11-3.38-10.2v-82.58c0-10.17,5.19-15.25,15.59-15.25h25.54
				c5.31,0,10.22,0.66,14.76,1.99c4.53,1.33,8.68,3.54,12.44,6.63c7.74,6.3,11.61,14.48,11.61,24.54c0,4.87-0.66,9.2-1.99,13.02
				c-1.33,3.81-3.54,7.21-6.63,10.2c-2.32,2.21-5.03,3.98-8.13,5.31c-2.1,0.99-5.25,1.99-9.45,2.98l21.56,23.55
				c1.66,1.66,2.93,3.12,3.81,4.39c0.88,1.27,1.6,2.79,2.16,4.56V1588.99z M1024.39,1524.32c0-3.76-1.45-6.91-4.34-9.45
				c-2.89-2.54-6.23-3.81-10-3.81h-15.34v25.87h15.68c4,0,7.33-1.13,10-3.4S1024.39,1528.19,1024.39,1524.32z"/>
			<path class="st3" d="M1226.03,1588.25c0,3.45-1.19,6.21-3.57,8.27c-2.38,2.06-5.28,3.09-8.71,3.09h-50.08
				c-2.76,0-4.95-0.22-6.55-0.66c-1.6-0.44-3.18-1.43-4.73-2.96c-1.99-1.97-2.98-4.17-2.98-6.58l0.33-1.32
				c0-2.08,0.72-4.17,2.16-6.25c0.66-0.99,2.16-2.63,4.48-4.94l25.21-28.92c5.31-6.21,8.68-10.36,10.12-12.47
				c4.09-5.87,6.13-10.7,6.13-14.46c0-3.1-0.99-5.82-2.98-8.14c-1.99-2.33-4.42-3.49-7.3-3.49c-3.32,0-6.03,1-8.13,2.99
				c-2.1,1.99-3.59,4.64-4.48,7.96c-1.44,6.08-3.01,9.98-4.73,11.69c-1.71,1.72-4.12,2.57-7.21,2.57c-3.54,0-6.36-1.21-8.46-3.65
				c-2.1-2.43-3.15-5.42-3.15-8.96c0-9.73,3.76-18.13,11.28-25.21c7.52-7.07,16.14-10.61,25.87-10.61c9.62,0,17.88,3.12,24.79,9.35
				c6.91,6.23,10.36,14.15,10.36,23.75c0,6.07-1.38,12.03-4.15,17.88c-2.21,4.75-5.58,9.93-10.11,15.56
				c-6.96,8.61-14.37,16.66-22.22,24.17h26.53c3.54,0,6.47,1,8.79,3.01C1224.87,1581.9,1226.03,1584.69,1226.03,1588.25z"/>
			<path class="st3" d="M1341.44,1544.22c0,14.92-3.15,27.8-9.45,38.64c-7.63,13.16-18.41,19.73-32.34,19.73
				c-4.87,0-9.59-1.22-14.18-3.65c-4.59-2.43-8.6-5.64-12.02-9.62c-4.97-5.53-8.49-12.11-10.53-19.73
				c-2.05-7.63-3.07-15.86-3.07-24.71c0-9.51,0.83-17.52,2.49-24.04c2.21-8.62,5.91-15.86,11.11-21.72
				c3.21-3.76,7.18-6.85,11.94-9.29c4.75-2.43,9.51-3.65,14.26-3.65c13.82,0,24.54,6.53,32.17,19.57
				C1338.23,1516.7,1341.44,1529.52,1341.44,1544.22z M1315.57,1544.22c0-6.96-0.99-13.54-2.98-19.73
				c-2.88-8.95-7.19-13.43-12.93-13.43c-5.53,0-9.45,4.42-11.77,13.27c-1.44,5.53-2.16,12.38-2.16,20.56
				c0,7.41,0.77,13.93,2.32,19.57c2.43,8.62,6.3,12.93,11.61,12.93c5.97,0,10.34-4.37,13.1-13.1
				C1314.63,1558.43,1315.57,1551.74,1315.57,1544.22z"/>
			<path class="st3" d="M1448.23,1588.25c0,3.45-1.19,6.21-3.57,8.27c-2.38,2.06-5.28,3.09-8.71,3.09h-50.08
				c-2.76,0-4.95-0.22-6.55-0.66c-1.6-0.44-3.18-1.43-4.73-2.96c-1.99-1.97-2.98-4.17-2.98-6.58l0.33-1.32
				c0-2.08,0.72-4.17,2.16-6.25c0.66-0.99,2.16-2.63,4.48-4.94l25.21-28.92c5.31-6.21,8.68-10.36,10.12-12.47
				c4.09-5.87,6.14-10.7,6.14-14.46c0-3.1-1-5.82-2.98-8.14c-1.99-2.33-4.42-3.49-7.3-3.49c-3.32,0-6.03,1-8.12,2.99
				c-2.1,1.99-3.59,4.64-4.48,7.96c-1.44,6.08-3.01,9.98-4.73,11.69c-1.71,1.72-4.12,2.57-7.21,2.57c-3.54,0-6.36-1.21-8.46-3.65
				c-2.1-2.43-3.15-5.42-3.15-8.96c0-9.73,3.76-18.13,11.28-25.21c7.52-7.07,16.14-10.61,25.87-10.61c9.62,0,17.88,3.12,24.79,9.35
				c6.91,6.23,10.36,14.15,10.36,23.75c0,6.07-1.38,12.03-4.15,17.88c-2.21,4.75-5.58,9.93-10.12,15.56
				c-6.96,8.61-14.37,16.66-22.22,24.17h26.53c3.54,0,6.47,1,8.79,3.01C1447.06,1581.9,1448.23,1584.69,1448.23,1588.25z"/>
		</g>
		<g class="st1">
			<path class="st3" d="M1570.27,1544.22c0,14.92-3.15,27.8-9.45,38.64c-7.63,13.16-18.41,19.73-32.34,19.73
				c-4.87,0-9.59-1.22-14.18-3.65c-4.59-2.43-8.6-5.64-12.02-9.62c-4.97-5.53-8.49-12.11-10.53-19.73
				c-2.05-7.63-3.07-15.86-3.07-24.71c0-9.51,0.83-17.52,2.49-24.04c2.21-8.62,5.91-15.86,11.11-21.72
				c3.21-3.76,7.18-6.85,11.94-9.29c4.75-2.43,9.51-3.65,14.26-3.65c13.82,0,24.54,6.53,32.17,19.57
				C1567.07,1516.7,1570.27,1529.52,1570.27,1544.22z M1544.4,1544.22c0-6.96-0.99-13.54-2.98-19.73
				c-2.88-8.95-7.19-13.43-12.93-13.43c-5.53,0-9.45,4.42-11.77,13.27c-1.44,5.53-2.16,12.38-2.16,20.56
				c0,7.41,0.77,13.93,2.32,19.57c2.43,8.62,6.3,12.93,11.61,12.93c5.97,0,10.34-4.37,13.1-13.1
				C1543.46,1558.43,1544.4,1551.74,1544.4,1544.22z"/>
		</g>
	</g>
	<g>
		<g>
			<polygon class="st0" points="143.76,807.56 80.76,1040.56 112.26,1236.73 238.76,1350.56 544.76,1342.56 643.76,1170.56 
				643.76,966.14 553.93,807.56 389.36,749.23 			"/>
		</g>
	</g>
	<g id="DJRound_4_">
		<g>
			<g>
				<circle class="st2" cx="360.76" cy="1059.56" r="38.56"/>
			</g>
		</g>
		<g>
			<path class="st2" d="M360.76,796.56c-145.25,0-263,117.75-263,263s117.75,263,263,263s263-117.75,263-263
				S506.01,796.56,360.76,796.56z M218.11,916.91c-9.42,9.42-17.96,19.78-25.41,30.79c-7.51,11.12-13.96,23-19.17,35.33
				c-5.31,12.55-9.38,25.68-12.11,39.03c-1.22,5.99-6.49,10.11-12.37,10.11c-0.84,0-1.69-0.08-2.55-0.26
				c-6.84-1.4-11.25-8.08-9.85-14.92c3.07-14.98,7.64-29.72,13.6-43.81c5.85-13.83,13.09-27.16,21.51-39.63
				c8.34-12.35,17.93-23.96,28.48-34.52c10.55-10.55,22.17-20.13,34.52-28.48c12.47-8.43,25.81-15.66,39.63-21.51
				c14.09-5.96,28.82-10.53,43.81-13.6c15.37-3.14,31.18-4.74,47-4.74c6.98,0,12.64,5.66,12.64,12.64c0,6.98-5.66,12.64-12.64,12.64
				c-14.12,0-28.23,1.42-41.93,4.23c-13.35,2.73-26.48,6.81-39.03,12.11c-12.32,5.21-24.21,11.66-35.33,19.18
				C237.88,898.94,227.52,907.49,218.11,916.91z M360.76,1149.96c-49.93,0-90.41-40.48-90.41-90.41c0-49.93,40.48-90.41,90.41-90.41
				s90.41,40.48,90.41,90.41C451.16,1109.49,410.69,1149.96,360.76,1149.96z"/>
		</g>
	</g>
</g>
</svg>
