<?xml version="1.0" encoding="utf-8"?>
<!-- Generator: Adobe Illustrator 24.3.0, SVG Export Plug-In . SVG Version: 6.00 Build 0)  -->
<svg version="1.1" id="Layer_1" xmlns="http://www.w3.org/2000/svg" xmlns:xlink="http://www.w3.org/1999/xlink" x="0px" y="0px"
	 viewBox="0 0 564.56 360.28" style="enable-background:new 0 0 564.56 360.28;" xml:space="preserve">
<style type="text/css">
	.st0{fill:#D3D3D3;}
</style>
<path class="st0" d="M339.21,360.28"/>
<path class="st0" d="M263.99,17.57c0-4.99,1.87-9.36,4.99-12.48c3.12-3.12,6.87-5.62,12.48-4.99c4.99,0,9.36,1.87,12.48,4.99
	c3.12,3.12,4.99,7.49,4.99,12.48c0.62,9.36-7.49,17.48-17.48,17.48C271.49,35.05,263.99,27.56,263.99,17.57z"/>
<path class="st0" d="M558.78,219.65l-70.54-26.84c-2.5-1.25-5.62-0.62-8.11,0.62c-0.41,0.41-0.83,0.9-1.22,1.41l-63.19,24.05
	l-61.72-23.49c-0.7-10.4-3.83-19.58-11.2-26.94c-3.49-3.49-7.53-6.16-11.85-8.02c4.86-3.28,9.45-7.06,13.72-11.33
	c16.85-16.85,26.22-38.7,25.59-61.8c0-4.99-3.75-8.74-8.74-8.74l-70.54,0l0-70.46l-17.48-0.63v71.09l-70.54,0
	c-4.83,0-8.74,3.92-8.74,8.75c0,30.83,15.78,57.88,39.71,73.59c-4,1.77-7.68,4.22-11,7.54c-7.24,7.24-10.97,16.82-11.21,26.47
	l-61.82,23.52l-65.16-24.79c-0.13-0.08-0.25-0.17-0.38-0.23c-0.93-0.46-1.94-0.84-2.98-1.07c-2.4-0.77-5.39-0.54-7.01,1.07
	c-0.04,0.04-0.08,0.09-0.13,0.14L5.74,219.65c-3.75,1.25-5.62,4.37-5.62,8.11l0,114.85c-0.62,3.12,1.25,6.24,3.75,7.49
	c2.5,1.25,5.62,1.87,8.11,0.62l67.41-25.65l65.16,24.79c0.13,0.08,0.25,0.17,0.38,0.23c1.1,0.55,2.32,0.97,3.56,1.17
	c0.15,0.03,0.3,0.06,0.46,0.08c0.08,0.01,0.16,0.01,0.24,0.02c0.25,0.02,0.49,0.04,0.74,0.04c0.25,0,0.49-0.02,0.74-0.04
	c0.08-0.01,0.16-0.01,0.24-0.02c0.15-0.02,0.31-0.05,0.46-0.08c1.24-0.2,2.46-0.62,3.56-1.17c0.05-0.05,0.1-0.1,0.14-0.14
	l56.66-21.56v2.35l0,0c9.34,18.68,28.71,30.19,49.58,29.47l46.42-1.6c18.75-0.64,35.79-11.09,44.87-27.5l0.21-0.38l0.02-2.34
	l55.94,21.29c0.45,0.41,0.94,0.77,1.46,1.03c2.5,1.25,5.62,1.87,8.11,0.62l67.92-25.85l66.28,25.22c2.5,1.25,5.62,0.62,8.11-0.62
	c0.62-0.62,0.62-0.62,1.25-1.25c1.87-1.87,3.12-4.37,2.5-6.24V227.77C564.4,224.02,562.53,220.9,558.78,219.65z M17.6,330.13
	l0-96.13l53.06-19.35v96.13L17.6,330.13z M88.13,309.54v-96.13l53.06,19.35v96.13L88.13,309.54z M211.73,310.78l-53.06,19.35v-46.64
	v-49.49l53.06-19.35V310.78z M212.35,95.43l67.57-0.3c0.74,0.19,1.52,0.3,2.34,0.3c0.97,0,1.84-0.1,2.66-0.32l67.87-0.3
	c-1.87,15.61-8.74,29.96-19.97,41.2c-13.73,13.73-31.21,21.22-49.94,21.22C246.68,157.23,216.72,129.77,212.35,95.43z
	 M353.42,310.16l0-46.82l0.46-49.14l52.6,19.18v96.13L353.42,310.16z M423.95,329.51l0-96.13l52.43-19.12v96.13L423.95,329.51z
	 M547.55,329.51l-53.06-19.35v-96.13l53.06,19.35V329.51z"/>
</svg>
