<svg id="Layer_1" data-name="Layer 1" xmlns="http://www.w3.org/2000/svg" viewBox="0 0 564.56 360.24">
	<defs>
		<style>.cls-1{fill:#fff;}</style>
	</defs>
	<path class="cls-1" d="M339.21,360.28" transform="translate(0 0)"/>
	<path class="cls-1" d="M264,17.57a17.42,17.42,0,0,1,5-12.48C272.1,2,275.85-.53,281.46.1a17.42,17.42,0,0,1,12.48,5,17.42,17.42,0,0,1,5,12.48c.62,9.36-7.49,17.48-17.48,17.48A17.07,17.07,0,0,1,264,17.57Z" transform="translate(0 0)"/>
	<path class="cls-1" d="M558.78,219.65l-70.54-26.84c-2.5-1.25-5.62-.62-8.11.62a14.39,14.39,0,0,0-1.22,1.41l-63.19,24L354,195.4c-.7-10.4-3.83-19.58-11.2-26.94a37.93,37.93,0,0,0-11.85-8,92.86,92.86,0,0,0,13.72-11.33c16.85-16.85,26.22-38.7,25.59-61.8a8.54,8.54,0,0,0-8.74-8.74H291V8.11L273.5,7.48V78.57H203a8.74,8.74,0,0,0-8.74,8.75,87.81,87.81,0,0,0,39.71,73.59,36,36,0,0,0-11,7.54,38.67,38.67,0,0,0-11.21,26.47L149.9,218.44,84.74,193.65a3.85,3.85,0,0,0-.38-.23,13.22,13.22,0,0,0-3-1.07c-2.4-.77-5.39-.54-7,1.07l-.13.14L5.74,219.65a8.05,8.05,0,0,0-5.62,8.11V342.61a7.12,7.12,0,0,0,3.75,7.49c2.5,1.25,5.62,1.87,8.11.62l67.41-25.65,65.16,24.79a3.85,3.85,0,0,0,.38.23,12.51,12.51,0,0,0,3.56,1.17l.46.08.24,0c.25,0,.49,0,.74,0s.49,0,.74,0l.24,0,.46-.08a12.51,12.51,0,0,0,3.56-1.17l.14-.14,56.66-21.56v2.35h0a53.37,53.37,0,0,0,49.58,29.47l46.42-1.6a53.37,53.37,0,0,0,44.87-27.5l.21-.38,0-2.34,55.94,21.29a6.56,6.56,0,0,0,1.46,1c2.5,1.25,5.62,1.87,8.11.62l67.92-25.85,66.28,25.22c2.5,1.25,5.62.62,8.11-.62l1.25-1.25c1.87-1.87,3.12-4.37,2.5-6.24V227.77A8.06,8.06,0,0,0,558.78,219.65ZM17.6,330.13V234l53.06-19.35v96.13Zm70.53-20.59V213.41l53.06,19.35v96.13Zm123.6,1.24-53.06,19.35V234l53.06-19.35Zm.62-215.35,67.57-.3a9.37,9.37,0,0,0,2.34.3,10.16,10.16,0,0,0,2.66-.32l67.87-.3a69.59,69.59,0,0,1-20,41.2c-13.73,13.73-31.21,21.22-49.94,21.22C246.68,157.23,216.72,129.77,212.35,95.43ZM353.42,310.16V263.34l.46-49.14,52.6,19.18v96.13ZM424,329.51V233.38l52.43-19.12v96.13Zm123.6,0-53.06-19.35V214l53.06,19.35Z" transform="translate(0 0)"/>
</svg>
