<svg id="Ebene_1" data-name="Ebene 1" xmlns="http://www.w3.org/2000/svg" viewBox="0 0 1969.46 1939.01"><defs><style>.cls-1{fill:#27e277;}.cls-2{font-size:125px;}.cls-2,.cls-4,.cls-5,.cls-7{fill:#fff;}.cls-2,.cls-4,.cls-6,.cls-7{font-family:QTVagaRound-Bold, QTVagaRound;font-weight:700;}.cls-3{letter-spacing:0.5em;}.cls-4{font-size:750px;letter-spacing:-0.05em;}.cls-6,.cls-7{font-size:165.82px;letter-spacing:0.1em;}.cls-6{fill:#010010;}</style></defs><g id="Winter"><path class="cls-1" d="M1399,76.86c364.85,172.48,611.41,653.42,529.59,994-82.92,341.63-494.21,542.86-890,591.5-395.81,50.86-775-52-934.25-326.15C-53.79,1063.07,7,617.51,280.11,326.73,552.09,37.06,1034.14-95.62,1399,76.86Z"/><text class="cls-2" transform="translate(408.89 145.33)"><tspan class="cls-3">SPINSHAR</tspan><tspan x="1089.49" y="0">E</tspan></text><text class="cls-4" transform="translate(0 749.23)">SPEEN<tspan x="108.74" y="550">OPEN</tspan></text><rect class="cls-5" x="166.42" y="1414.56" width="1636.67" height="262" rx="131"/><text class="cls-6" transform="translate(349 1599.61)">SUMMER 2022</text><polygon class="cls-1" points="143.76 807.56 80.76 1040.56 112.26 1236.73 238.76 1350.56 544.76 1342.56 643.76 1170.56 643.76 966.14 553.93 807.56 389.36 749.23 143.76 807.56"/><g id="DJRound"><circle class="cls-5" cx="360.76" cy="1059.56" r="38.56"/><path class="cls-5" d="M360.76,796.56c-145.25,0-263,117.75-263,263s117.75,263,263,263,263-117.75,263-263S506,796.56,360.76,796.56ZM218.11,916.91a207.34,207.34,0,0,0-56.7,105.14A12.64,12.64,0,0,1,149,1032.16a12.33,12.33,0,0,1-2.55-.26,12.64,12.64,0,0,1-9.85-14.92,232.1,232.1,0,0,1,35.11-83.44A232.74,232.74,0,0,1,365.18,830.7a12.64,12.64,0,1,1,0,25.28,209.87,209.87,0,0,0-41.93,4.23,207.75,207.75,0,0,0-105.14,56.7ZM360.76,1150a90.41,90.41,0,1,1,90.4-90.4A90.4,90.4,0,0,1,360.76,1150Z"/></g><rect class="cls-1" x="97.76" y="1677.01" width="1767.01" height="262" rx="131"/><text class="cls-7" transform="translate(417.64 1862.06)">CHALLENGER</text></g></svg>